<svg width="14" height="26" viewBox="0 0 14 26" fill="none" xmlns="http://www.w3.org/2000/svg">
<path d="M9.85927 0.788696C10.5221 0.788696 11.185 0.823954 11.8407 0.85216C12.2709 0.866263 12.701 0.929727 13.103 0.972036L13.0748 4.9491C12.9549 4.9491 12.8562 4.9491 12.7574 4.9491C12.3203 4.9491 11.8831 4.94205 11.4459 4.94205C11.1215 4.94205 10.7901 4.94205 10.4657 4.95616C9.41502 4.99846 8.63935 5.39335 8.58294 6.70494C8.54768 7.64984 8.52653 9.74415 8.52653 9.85697C8.58294 9.85697 9.61952 9.86403 10.6702 9.86403C11.192 9.86403 11.7068 9.86403 12.0593 9.85697C12.3344 9.85697 12.6023 9.85697 12.9126 9.85697C12.701 11.3801 12.5036 12.8468 12.292 14.3206H8.52653L8.44191 25.4761H3.8161L3.90072 14.3065H0.121094L0.156351 9.86403H3.95713V9.5326C3.96418 8.63706 3.95008 7.74151 3.98534 6.84597C3.99944 6.28184 4.02765 5.70362 4.12637 5.14655C4.38022 3.7856 5.01486 2.64325 6.15016 1.83232C7.14443 1.12012 8.27972 0.823954 9.48554 0.795748C9.61246 0.788696 9.73234 0.788696 9.85927 0.788696Z" fill="white"/>
</svg>
