<svg width="23" height="23" viewBox="0 0 23 23" fill="none" xmlns="http://www.w3.org/2000/svg">
<g clip-path="url(#clip0_282_2393)">
<path d="M17.671 4.4292C17.6781 4.4292 17.6851 4.4292 17.6851 4.4292C18.4044 4.4292 18.9897 5.01448 18.9826 5.74784C18.9756 6.46709 18.3832 7.05237 17.6569 7.05237C16.9306 7.04532 16.3524 6.45299 16.3594 5.73373C16.3665 5.01448 16.9518 4.4292 17.671 4.4292Z" fill="white"/>
<path d="M22.5941 6.11451C22.7563 7.83509 22.8621 15.9585 22.3544 17.8624C21.6774 20.3516 20.0485 21.8253 17.5311 22.2343C16.5862 22.3895 14.0477 22.4811 11.502 22.4811C8.90003 22.4811 6.30507 22.3824 5.43067 22.1568C2.95558 21.5151 1.47476 19.9003 1.07988 17.3899C0.790762 15.5424 0.762556 6.98185 1.29142 5.12025C1.98247 2.70157 3.60433 1.27716 6.05121 0.875222C7.16535 0.691882 9.33723 0.628418 11.5303 0.628418C13.5681 0.628418 15.6272 0.68483 16.8683 0.748294C18.3702 0.825861 19.7382 1.31242 20.8594 2.3772C21.9172 3.39967 22.4601 4.676 22.5941 6.11451ZM20.4928 17.0232C20.803 15.1052 20.803 8.08894 20.6267 6.2908C20.4293 4.37278 19.2587 3.10351 17.3548 2.80734C16.417 2.66631 14.1464 2.60285 11.8899 2.60285C9.71096 2.60285 7.54614 2.65926 6.59418 2.76503C4.69731 2.99068 3.41393 4.16124 3.11072 6.0581C2.80045 8.06779 2.80045 15.5777 3.03315 17.0867C3.2729 18.6592 4.1614 19.7381 5.72684 20.1753C6.57302 20.415 9.11158 20.4997 11.6008 20.4997C13.8925 20.4997 16.142 20.4291 16.9881 20.3375C18.9203 20.1259 20.1895 18.9413 20.4928 17.0232Z" fill="white"/>
<path d="M11.8476 5.95229C14.9362 5.95229 17.4254 8.46263 17.4042 11.5583C17.3831 14.6468 14.8516 17.1572 11.756 17.1572C8.66034 17.1572 6.1782 14.6468 6.19935 11.5512C6.22051 8.45558 8.75201 5.94523 11.8476 5.95229ZM11.7701 15.1757C13.7586 15.1757 15.3875 13.575 15.4228 11.5865C15.458 9.57678 13.8644 7.94787 11.8617 7.92672C11.8476 7.92672 11.8406 7.92672 11.8265 7.92672C9.83795 7.92672 8.20904 9.52741 8.17378 11.5159C8.13853 13.5186 9.73217 15.1545 11.7348 15.1757C11.7489 15.1757 11.756 15.1757 11.7701 15.1757Z" fill="white"/>
</g>
<defs>
<clipPath id="clip0_282_2393">
<rect width="21.8527" height="21.8457" fill="white" transform="translate(0.875 0.628418)"/>
</clipPath>
</defs>
</svg>
