<svg width="61" height="60" viewBox="0 0 61 60" fill="none" xmlns="http://www.w3.org/2000/svg">
<path d="M46.082 44.9308V58.3948H49.4102V48.1077H56.6717V58.3948H59.8487V31.3154H56.6717V44.9308H46.082Z" fill="#FF4135" stroke="#1B1C1F"/>
<path d="M14.7668 44.7794L14.7668 58.2435L11.4387 58.2435L11.4387 47.9563L4.17713 47.9563L4.17713 58.2435L1.00022 58.2435L1.00022 31.1641L4.17713 31.1641L4.17713 44.7794L14.7668 44.7794Z" fill="#FF4135" stroke="#1B1C1F"/>
<path d="M30.6511 0.00012207V57.7897" stroke="#1B1C1F" stroke-width="2"/>
<path d="M25.5078 57.7898H35.6437M25.5078 58.3949H35.6437M25.5078 59H35.6437" stroke="#82B253" stroke-width="2"/>
<path d="M43.9637 36.459H17.792V44.6282H43.9637V36.459Z" fill="#F7F2E2" stroke="#1B1C1F" stroke-width="1.5"/>
<path d="M43.1436 37.4604H30.969V44.016H43.1436V37.4604Z" fill="#D2D2D2"/>
<path d="M58.2515 23.9187C43.2863 -10.4166 7.66453 5.0831 1.67001 25.3722C1.39367 26.3074 2.55806 26.9224 3.34154 26.3416C9.9605 21.4354 16.6306 24.7187 19.932 27.721C20.3493 28.1004 20.9949 28.1086 21.4137 27.7308C28.7553 21.1094 36.3388 24.5967 39.9123 27.7524C40.3264 28.118 40.9562 28.126 41.3705 27.7607C46.946 22.8442 52.3977 23.5572 56.1762 25.5348C57.1379 26.0381 58.6852 24.9138 58.2515 23.9187Z" fill="#82B253" stroke="#1B1C1F" stroke-width="2"/>
<path d="M55.2932 24.5926C52.3416 22.5515 49.6129 22.405 46.1174 23.7158C46.1174 9.61617 39.7671 5.99832 35.9788 5.33265C35.5069 5.27155 35.0301 5.229 34.5488 5.20608C34.9572 5.20332 35.4423 5.23838 35.9788 5.33265C45.7615 6.59922 53.4816 15.8383 56.9055 23.4854C57.3297 24.4326 56.1468 25.1828 55.2932 24.5926Z" fill="#D2D2D2"/>
<path d="M7.94124 23.1372C13.6899 22.5321 17.7892 23.9205 20.6667 27.1863C21.1963 10.1117 27.9282 6.20265 30.5 4.08337C21.2718 7.4129 15.5053 7.40395 7.94124 23.1372Z" fill="#D2D2D2"/>
<path d="M39.874 27.59C32.9569 22.5761 25.1913 25.2523 21.2231 28.0544C20.5155 28.554 19.4278 28.119 19.4347 27.2529C19.524 16.055 26.526 7.2145 30.2668 4.06121C30.5855 3.79252 31.0389 3.77587 31.3814 4.01344C38.844 9.18861 41.355 20.3874 41.5253 26.8316C41.5475 27.6723 40.555 28.0835 39.874 27.59Z" fill="#F7F2E2" stroke="#1B1C1F" stroke-width="2"/>
</svg>
