<svg width="58" height="65" viewBox="0 0 58 65" fill="none" xmlns="http://www.w3.org/2000/svg">
<path d="M56.7507 41.8127H2.99121C2.99121 57.2056 14.1984 62.8278 19.802 63.7148H40.6404C53.2485 60.4397 56.634 47.7488 56.7507 41.8127Z" fill="#EFEFEF" stroke="#1B1C1F" stroke-width="2"/>
<path d="M55.7553 42.8086H16.929C16.929 56.5052 25.023 61.9303 29.0701 62.7195H40.822C50.7775 60.4268 55.7553 49.1137 55.7553 42.8086Z" fill="#D2D2D2"/>
<path d="M17.9344 18.1684V28.4936C17.9344 31.1936 20.0779 33.4059 22.7765 33.4911L33.8404 33.8405C34.4038 33.8583 34.9663 33.7806 35.5039 33.6109L35.6153 33.5757C36.8301 33.1921 37.3375 31.7505 36.6309 30.6906L36.0297 29.7888C35.962 29.6873 35.869 29.6052 35.7599 29.5507C35.0984 29.2199 35.3337 28.2228 36.0734 28.2228H39.3411C39.5323 28.2228 39.7217 28.1856 39.8986 28.1132L42.1671 27.1852C42.8157 26.9198 42.9973 26.0869 42.518 25.5757L40.9968 23.9531C40.9106 23.8611 40.8028 23.7921 40.6832 23.7522C39.9268 23.5001 40.0212 22.4015 40.8095 22.282L43.0849 21.9373C43.3619 21.8953 43.6182 21.7658 43.8163 21.5677L44.6537 20.7303C45.6317 19.7523 45.3212 18.0969 44.0552 17.5399L42.5055 16.858C42.3545 16.7916 42.1914 16.7573 42.0264 16.7573C41.0431 16.7573 40.4843 15.632 41.0786 14.8486L43.1089 12.1723C43.3736 11.8234 43.5557 11.4148 43.6381 10.9846C44.5086 6.44305 44.3553 6.23482 39.7793 7.22239C39.2212 7.34284 38.701 7.60768 38.2742 7.98701L36.8251 9.27512C35.6136 10.352 33.6916 9.75836 33.2985 8.18579C33.1731 7.6843 32.8718 7.24449 32.4495 6.94639L31.804 6.49071C30.9235 5.86915 29.6946 6.20481 29.2523 7.18769L28.6232 8.58572C28.5538 8.73988 28.5179 8.90702 28.5179 9.07608V11.6013C28.5179 12.3486 27.4916 12.5559 27.2016 11.8671C27.1403 11.7215 27.0305 11.6015 26.8908 11.5275L25.133 10.597C24.5932 10.3111 23.9254 10.5719 23.7221 11.1479L23.2361 12.5249C23.114 12.8709 23.0854 13.2429 23.153 13.6035L23.5488 15.7148C23.7515 16.7959 22.5337 17.573 21.6386 16.9337L19.4891 15.5006C18.8245 15.0576 17.9344 15.534 17.9344 16.3327V18.1684Z" fill="#83B353"/>
<path d="M26.4429 29.8578L26.3386 29.8566C23.5773 29.8247 21.3647 27.5605 21.3965 24.7992L21.3977 24.6949" fill="#83B353"/>
<path d="M31.7347 24.566L31.6303 24.5648C28.8691 24.5329 26.6565 22.2687 26.6883 19.5075L26.6895 19.4031" fill="#83B353"/>
<path d="M36.2812 19.0162C34.0133 18.9901 32.1959 17.1303 32.2221 14.8623Z" fill="#83B353"/>
<path d="M26.4313 30.8577L27.4313 30.8692L27.4543 28.8694L26.4544 28.8578L26.4313 30.8577ZM22.3977 24.7064L22.4092 23.7065L20.4093 23.6835L20.3978 24.6834L22.3977 24.7064ZM31.7231 25.5659L32.7231 25.5774L32.7461 23.5776L31.7462 23.566L31.7231 25.5659ZM27.6895 19.4147L27.701 18.4147L25.7011 18.3917L25.6896 19.3916L27.6895 19.4147ZM36.2697 20.0162L37.2697 20.0277L37.2927 18.0278L36.2928 18.0163L36.2697 20.0162ZM33.222 14.8739L33.2335 13.8739L31.2337 13.8509L31.2221 14.8508L33.222 14.8739ZM29.2523 7.18769L30.1642 7.59806L29.2523 7.18769ZM44.0552 17.5399L44.4579 16.6246L44.0552 17.5399ZM42.518 25.5757L41.7884 26.2596L42.518 25.5757ZM42.1671 27.1852L42.5457 28.1107L42.1671 27.1852ZM23.7221 11.1479L24.6651 11.4807L23.7221 11.1479ZM36.6309 30.6906L35.7988 31.2453L36.6309 30.6906ZM35.6153 33.5757L35.3142 32.6221L35.6153 33.5757ZM26.3386 29.8566L26.327 30.8565L26.3386 29.8566ZM33.8404 33.8405L33.8719 32.841L33.8404 33.8405ZM35.5039 33.6109L35.2027 32.6573L35.5039 33.6109ZM36.0297 29.7888L35.1976 30.3435L36.0297 29.7888ZM35.7599 29.5507L36.2071 28.6563L35.7599 29.5507ZM39.8986 28.1132L40.2773 29.0387L39.8986 28.1132ZM40.9968 23.9531L40.2673 24.6371L40.9968 23.9531ZM40.8095 22.282L40.9593 23.2707L40.8095 22.282ZM40.6832 23.7522L40.3669 24.7009L40.6832 23.7522ZM43.0849 21.9373L43.2347 22.926L43.0849 21.9373ZM43.8163 21.5677L43.1092 20.8606L43.8163 21.5677ZM42.5055 16.858L42.1028 17.7733L42.5055 16.858ZM41.0786 14.8486L41.8753 15.453L41.0786 14.8486ZM38.2742 7.98701L37.6099 7.2396L38.2742 7.98701ZM39.7793 7.22239L39.9903 8.19989L39.7793 7.22239ZM36.8251 9.27512L37.4895 10.0225L36.8251 9.27512ZM33.2985 8.18579L34.2686 7.94326L33.2985 8.18579ZM32.4495 6.94639L31.8729 7.76336L32.4495 6.94639ZM19.4891 15.5006L18.9344 16.3327L19.4891 15.5006ZM28.6232 8.58572L27.7113 8.17535L28.6232 8.58572ZM23.153 13.6035L24.1358 13.4192L23.153 13.6035ZM23.2361 12.5249L22.2932 12.1921L23.2361 12.5249ZM21.6386 16.9337L22.2198 16.1199L22.2067 16.1106L22.1933 16.1016L21.6386 16.9337ZM27.2016 11.8671L28.1233 11.4791L27.2016 11.8671ZM26.8908 11.5275L26.4229 12.4113L26.8908 11.5275ZM43.6381 10.9846L44.6202 11.1729L43.6381 10.9846ZM43.1089 12.1723L42.3122 11.568L43.1089 12.1723ZM12.9969 39.5135L38.2211 14.2893L36.8068 12.8751L11.5827 38.0993L12.9969 39.5135ZM18.9344 28.4936V18.1684H16.9344V28.4936H18.9344ZM24.5317 15.5305L24.1358 13.4192L22.1701 13.7878L22.566 15.8991L24.5317 15.5305ZM29.5179 11.6013V9.07608H27.5179V11.6013H29.5179ZM37.4895 10.0225L38.9386 8.73442L37.6099 7.2396L36.1607 8.52771L37.4895 10.0225ZM39.9903 8.19989C41.1484 7.94995 41.9469 7.79444 42.5101 7.75214C43.1268 7.70582 43.1351 7.82731 43.0477 7.74086C42.9627 7.65674 43.0827 7.66716 43.0475 8.28516C43.0155 8.84899 42.8767 9.64508 42.656 10.7964L44.6202 11.1729C44.8348 10.0534 45.0033 9.12035 45.0443 8.39868C45.0823 7.73118 45.0411 6.89973 44.4546 6.31929C43.8657 5.73653 43.0321 5.70729 42.3603 5.75776C41.6349 5.81224 40.6983 6.00104 39.5684 6.24489L39.9903 8.19989ZM42.3122 11.568L40.2819 14.2442L41.8753 15.453L43.9056 12.7767L42.3122 11.568ZM42.9351 20.9486L40.6597 21.2933L40.9593 23.2707L43.2347 22.926L42.9351 20.9486ZM39.3411 27.2228H36.0734V29.2228H39.3411V27.2228ZM33.8719 32.841L22.8081 32.4916L22.745 34.4906L33.8088 34.84L33.8719 32.841ZM26.4544 28.8578L26.3501 28.8566L26.327 30.8565L26.4313 30.8577L26.4544 28.8578ZM22.3965 24.8108L22.3977 24.7064L20.3978 24.6834L20.3966 24.7877L22.3965 24.8108ZM31.7462 23.566L31.6419 23.5648L31.6188 25.5647L31.7231 25.5659L31.7462 23.566ZM27.6883 19.519L27.6895 19.4147L25.6896 19.3916L25.6884 19.4959L27.6883 19.519ZM18.9344 18.1684V16.3327H16.9344V18.1684H18.9344ZM18.9344 16.3327L21.0839 17.7657L22.1933 16.1016L20.0438 14.6686L18.9344 16.3327ZM35.1976 30.3435L35.7988 31.2453L37.4629 30.1359L36.8617 29.2341L35.1976 30.3435ZM35.3142 32.6221L35.2027 32.6573L35.805 34.5645L35.9164 34.5293L35.3142 32.6221ZM24.1791 12.8577L24.6651 11.4807L22.7792 10.8151L22.2932 12.1921L24.1791 12.8577ZM24.6651 11.4807L26.4229 12.4113L27.3587 10.6438L25.6009 9.71316L24.6651 11.4807ZM40.2673 24.6371L41.7884 26.2596L43.2475 24.8918L41.7263 23.2692L40.2673 24.6371ZM41.7884 26.2596L39.52 27.1876L40.2773 29.0387L42.5457 28.1107L41.7884 26.2596ZM42.1028 17.7733L43.6524 18.4552L44.4579 16.6246L42.9083 15.9427L42.1028 17.7733ZM43.9466 20.0232L43.1092 20.8606L44.5234 22.2748L45.3608 21.4374L43.9466 20.0232ZM29.5351 8.99608L30.1642 7.59806L28.3404 6.77733L27.7113 8.17535L29.5351 8.99608ZM31.2273 7.30768L31.8729 7.76336L33.0262 6.12942L32.3807 5.67374L31.2273 7.30768ZM30.1642 7.59806C30.3485 7.18857 30.8605 7.04872 31.2273 7.30768L32.3807 5.67374C30.9865 4.68959 29.0407 5.22106 28.3404 6.77733L30.1642 7.59806ZM43.6524 18.4552C44.2746 18.7289 44.4273 19.5425 43.9466 20.0232L45.3608 21.4374C46.8362 19.962 46.3677 17.4649 44.4579 16.6246L43.6524 18.4552ZM41.7884 26.2596L42.5457 28.1107C43.8429 27.5801 44.2061 25.9142 43.2475 24.8918L41.7884 26.2596ZM24.6651 11.4807V11.4807L25.6009 9.71316C24.5212 9.14154 23.1858 9.66305 22.7792 10.8151L24.6651 11.4807ZM35.7988 31.2453C36.136 31.7511 35.8939 32.439 35.3142 32.6221L35.9164 34.5293C37.7663 33.9451 38.539 31.75 37.4629 30.1359L35.7988 31.2453ZM31.6419 23.5648C29.4329 23.5394 27.6628 21.728 27.6883 19.519L25.6884 19.4959C25.6502 22.8094 28.3053 25.5265 31.6188 25.5647L31.6419 23.5648ZM26.3501 28.8566C24.1411 28.8311 22.371 27.0198 22.3965 24.8108L20.3966 24.7877C20.3584 28.1012 23.0135 30.8183 26.327 30.8565L26.3501 28.8566ZM33.8088 34.84C34.485 34.8613 35.1599 34.7682 35.805 34.5645L35.2027 32.6573C34.7727 32.7931 34.3227 32.8552 33.8719 32.841L33.8088 34.84ZM35.3127 30.4451C35.2662 30.4218 35.2265 30.3868 35.1976 30.3435L36.8617 29.2341C36.6975 28.9878 36.4719 28.7886 36.2071 28.6563L35.3127 30.4451ZM36.0734 27.2228C34.2785 27.2228 33.7073 29.6424 35.3127 30.4451L36.2071 28.6563C36.2535 28.6795 36.3125 28.7333 36.3463 28.813C36.376 28.8829 36.3754 28.9459 36.3645 28.9925C36.3535 29.039 36.3258 29.0956 36.268 29.1448C36.2021 29.201 36.1253 29.2228 36.0734 29.2228V27.2228ZM39.3411 29.2228C39.6622 29.2228 39.9801 29.1603 40.2773 29.0387L39.52 27.1876C39.4632 27.2109 39.4025 27.2228 39.3411 27.2228V29.2228ZM40.3669 24.7009C40.3289 24.6882 40.2947 24.6663 40.2673 24.6371L41.7263 23.2692C41.5265 23.056 41.2766 22.896 40.9994 22.8035L40.3669 24.7009ZM40.6597 21.2933C38.8326 21.5701 38.6138 24.1165 40.3669 24.7009L40.9994 22.8035C41.0343 22.8152 41.0896 22.8511 41.1277 22.9139C41.1605 22.9678 41.1664 23.0175 41.1634 23.053C41.1604 23.0884 41.146 23.1363 41.1045 23.1839C41.0562 23.2393 40.9956 23.2652 40.9593 23.2707L40.6597 21.2933ZM43.2347 22.926C43.7227 22.852 44.1743 22.6238 44.5234 22.2748L43.1092 20.8606C43.062 20.9077 43.001 20.9386 42.9351 20.9486L43.2347 22.926ZM42.0264 17.7573C42.0527 17.7573 42.0787 17.7627 42.1028 17.7733L42.9083 15.9427C42.6303 15.8204 42.33 15.7573 42.0264 15.7573V17.7573ZM40.2819 14.2442C39.188 15.6862 40.2165 17.7573 42.0264 17.7573V15.7573C41.8696 15.7573 41.7806 15.5779 41.8753 15.453L40.2819 14.2442ZM38.9386 8.73442C39.2372 8.46896 39.6015 8.28379 39.9903 8.19989L39.5684 6.24489C38.8409 6.40189 38.1647 6.7464 37.6099 7.2396L38.9386 8.73442ZM32.3283 8.42833C32.9037 10.7297 35.7164 11.5986 37.4895 10.0225L36.1607 8.52771C35.5107 9.1055 34.4795 8.78698 34.2686 7.94326L32.3283 8.42833ZM34.2686 7.94326C34.0851 7.20934 33.6443 6.56569 33.0262 6.12942L31.8729 7.76336C32.0994 7.9233 32.2611 8.15927 32.3283 8.42833L34.2686 7.94326ZM18.9344 16.3327L20.0438 14.6686C18.7147 13.7825 16.9344 14.7353 16.9344 16.3327H18.9344ZM29.5179 9.07608C29.5179 9.0485 29.5238 9.02123 29.5351 8.99608L27.7113 8.17535C27.5838 8.45854 27.5179 8.76554 27.5179 9.07608H29.5179ZM26.28 12.2552C26.9934 13.9494 29.5179 13.4396 29.5179 11.6013H27.5179C27.5179 11.5459 27.5418 11.4626 27.6044 11.392C27.659 11.3303 27.7209 11.3026 27.7706 11.2925C27.8202 11.2825 27.8881 11.2841 27.9623 11.3197C28.0474 11.3605 28.1018 11.428 28.1233 11.4791L26.28 12.2552ZM24.1358 13.4192C24.1006 13.2315 24.1156 13.0378 24.1791 12.8577L22.2932 12.1921C22.1125 12.7039 22.0701 13.2543 22.1701 13.7878L24.1358 13.4192ZM21.0574 17.7474C22.6854 18.9103 24.9004 17.4969 24.5317 15.5305L22.566 15.8991C22.5779 15.9625 22.5676 16.0025 22.5545 16.0306C22.5391 16.0639 22.5101 16.0992 22.4675 16.1264C22.4249 16.1536 22.3807 16.165 22.3439 16.165C22.3129 16.165 22.2724 16.1574 22.2198 16.1199L21.0574 17.7474ZM36.2928 18.0163C34.577 17.9965 33.2022 16.5896 33.222 14.8739L31.2221 14.8508C31.1896 17.671 33.4495 19.9837 36.2697 20.0162L36.2928 18.0163ZM28.1233 11.4791C27.9724 11.1208 27.7023 10.8257 27.3587 10.6438L26.4229 12.4113C26.3587 12.3773 26.3082 12.3222 26.28 12.2552L28.1233 11.4791ZM42.656 10.7964C42.6025 11.0754 42.4839 11.3416 42.3122 11.568L43.9056 12.7767C44.2633 12.3052 44.5088 11.7542 44.6202 11.1729L42.656 10.7964ZM16.9344 28.4936C16.9344 31.7336 19.5066 34.3883 22.745 34.4906L22.8081 32.4916C20.6492 32.4234 18.9344 30.6536 18.9344 28.4936H16.9344Z" fill="#1B1C1F"/>
<path d="M10.1067 29.3419C8.13109 24.1207 5.52048 27.1664 4.46212 29.3419C-1.04133 30.1886 1.22825 33.4577 3.05098 34.9865H12.047C15.716 30.8942 12.2822 29.5183 10.1067 29.3419Z" fill="#82B253" stroke="#1B1C1F" stroke-width="2"/>
<path d="M5.34375 38.6909V35.1631H9.40078V38.6909H5.34375Z" stroke="#1B1C1F" stroke-width="2"/>
<circle cx="50.0371" cy="32.8091" r="5.35014" fill="#F7F2E2" stroke="#1B1C1F" stroke-width="2"/>
<circle cx="50.0366" cy="32.8089" r="1.82228" stroke="#1B1C1F" stroke-width="2"/>
<path d="M52.4095 18.9531C51.6452 19.7174 50.6734 20.2266 49.6264 20.4258L49.6264 9.91409C50.6734 10.1133 51.6452 10.6225 52.4095 11.3868C53.4129 12.3902 53.9766 13.751 53.9766 15.17C53.9766 16.5889 53.4129 17.9497 52.4095 18.9531Z" fill="#FF4135" stroke="#1B1C1F" stroke-width="2"/>
<path d="M10.1822 12.6597C10.6814 12.1963 11.3083 11.8655 11.9942 11.7013L11.9942 18.6385C11.3083 18.4743 10.6814 18.1435 10.1822 17.68C9.45074 17.0008 9.05518 16.0961 9.05518 15.1699C9.05518 14.2437 9.45074 13.339 10.1822 12.6597Z" fill="#FF4135" stroke="#1B1C1F" stroke-width="2"/>
<mask id="path-11-inside-1_264_1079" fill="white">
<path d="M26.4009 -3.58862e-05C25.6524 -3.58534e-05 24.9345 0.297311 24.4052 0.826592C23.876 1.35587 23.5786 2.07373 23.5786 2.82225C23.5786 3.57076 23.876 4.28862 24.4052 4.8179C24.9345 5.34718 25.6524 5.64453 26.4009 5.64453L26.4009 -3.58862e-05Z"/>
</mask>
<path d="M26.4009 -3.58862e-05C25.6524 -3.58534e-05 24.9345 0.297311 24.4052 0.826592C23.876 1.35587 23.5786 2.07373 23.5786 2.82225C23.5786 3.57076 23.876 4.28862 24.4052 4.8179C24.9345 5.34718 25.6524 5.64453 26.4009 5.64453L26.4009 -3.58862e-05Z" fill="#F7F2E2"/>
<path d="M26.4009 -3.58862e-05L29.4009 -3.55404e-05L29.4009 -3.00004L26.4009 -3.00004L26.4009 -3.58862e-05ZM26.4009 5.64453L26.4009 8.64453L29.4009 8.64453L29.4009 5.64453L26.4009 5.64453ZM26.4009 -3.00004C24.8567 -3.00004 23.3758 -2.38662 22.2839 -1.29473L26.5266 2.94791C26.4932 2.98124 26.448 2.99996 26.4009 2.99996L26.4009 -3.00004ZM22.2839 -1.29473C21.192 -0.202839 20.5786 1.27808 20.5786 2.82225L26.5786 2.82225C26.5786 2.86938 26.5599 2.91458 26.5266 2.94791L22.2839 -1.29473ZM20.5786 2.82225C20.5786 4.36641 21.192 5.84733 22.2839 6.93922L26.5266 2.69658C26.5599 2.72991 26.5786 2.77511 26.5786 2.82225L20.5786 2.82225ZM22.2839 6.93922C23.3758 8.03111 24.8567 8.64453 26.4009 8.64453L26.4009 2.64453C26.448 2.64453 26.4932 2.66325 26.5266 2.69658L22.2839 6.93922ZM29.4009 5.64453L29.4009 -3.55404e-05L23.4009 -3.62319e-05L23.4009 5.64453L29.4009 5.64453Z" fill="#1B1C1F" mask="url(#path-11-inside-1_264_1079)"/>
<mask id="path-13-inside-2_264_1079" fill="white">
<path d="M38.3955 4.58619C38.3955 4.21193 38.2469 3.853 37.9822 3.58836C37.7176 3.32372 37.3586 3.17505 36.9844 3.17505C36.6101 3.17505 36.2512 3.32372 35.9866 3.58836C35.7219 3.853 35.5732 4.21193 35.5732 4.58619L38.3955 4.58619Z"/>
</mask>
<path d="M38.3955 4.58619L38.3955 7.58619H41.3955V4.58619L38.3955 4.58619ZM35.5732 4.58619L32.5732 4.58619L32.5732 7.58619L35.5732 7.58619L35.5732 4.58619ZM41.3955 4.58619C41.3955 3.41628 40.9308 2.29429 40.1035 1.46704L35.8609 5.70968C35.5629 5.41171 35.3955 5.00758 35.3955 4.58619L41.3955 4.58619ZM40.1035 1.46704C39.2763 0.639793 38.1543 0.175049 36.9844 0.175049L36.9844 6.17505C36.563 6.17505 36.1589 6.00765 35.8609 5.70968L40.1035 1.46704ZM36.9844 0.175049C35.8145 0.175049 34.6925 0.639792 33.8652 1.46704L38.1079 5.70968C37.8099 6.00765 37.4058 6.17505 36.9844 6.17505L36.9844 0.175049ZM33.8652 1.46704C33.038 2.29429 32.5732 3.41628 32.5732 4.58619L38.5732 4.58619C38.5732 5.00758 38.4058 5.41171 38.1079 5.70968L33.8652 1.46704ZM35.5732 7.58619L38.3955 7.58619L38.3955 1.58619L35.5732 1.58619L35.5732 7.58619Z" fill="#1B1C1F" mask="url(#path-13-inside-2_264_1079)"/>
</svg>
