<svg width="171" height="44" viewBox="0 0 171 44" fill="none" xmlns="http://www.w3.org/2000/svg">
<path d="M47.994 39.1573C51.6614 39.1429 55.3288 39.1237 58.9963 39.0997C59.3323 39.0949 59.3371 38.5717 58.9963 38.5765C55.3288 38.6053 51.6614 38.6437 47.994 38.6821C47.682 38.6821 47.682 39.1573 47.994 39.1573Z" fill="#707173"/>
<path d="M60.758 39.4117C61.6893 39.4165 62.6157 39.4261 63.547 39.4309C63.8782 39.4309 63.8782 38.9125 63.547 38.9125C62.6157 38.9173 61.6893 38.9269 60.758 38.9317C60.4508 38.9317 60.4508 39.4069 60.758 39.4117Z" fill="#707173"/>
<path d="M66.1872 39.5364C66.528 39.5364 66.8736 39.5412 67.2145 39.5412C67.3441 39.5412 67.4737 39.426 67.4641 39.2916C67.4593 39.1572 67.3537 39.042 67.2145 39.042C66.8736 39.042 66.528 39.0468 66.1872 39.0468C66.0576 39.0468 65.9328 39.162 65.9376 39.2964C65.9472 39.426 66.048 39.5364 66.1872 39.5364Z" fill="#707173"/>
<path d="M72.202 39.6757C77.2856 39.6181 82.3787 39.6181 87.4622 39.4933C87.7838 39.4837 87.7886 38.9893 87.4622 38.9893C82.3787 38.9893 77.2856 39.1189 72.202 39.1861C71.8852 39.1909 71.8852 39.6757 72.202 39.6757Z" fill="#707173"/>
<path d="M91.1296 39.791C92.008 39.7958 92.8913 39.8198 93.7698 39.791C94.1058 39.7814 94.1058 39.2773 93.7698 39.2677C92.8913 39.2389 92.008 39.2629 91.1296 39.2677C90.7936 39.2677 90.7936 39.791 91.1296 39.791Z" fill="#707173"/>
<path d="M99.9333 39.6901C102.477 39.6517 105.022 39.6181 107.561 39.5701C110.1 39.5221 112.654 39.5557 115.189 39.4165C115.539 39.3973 115.544 38.8741 115.189 38.8693C112.649 38.8261 110.096 38.9557 107.561 39.0085C105.017 39.0565 102.473 39.1189 99.9333 39.1765C99.6021 39.1813 99.6021 39.6949 99.9333 39.6901Z" fill="#707173"/>
<path d="M119.01 39.4116C120.575 39.4356 122.144 39.4837 123.705 39.4405C124.055 39.4309 124.055 38.9028 123.705 38.8932C122.14 38.85 120.57 38.898 119.01 38.922C118.693 38.9316 118.693 39.4068 119.01 39.4116Z" fill="#707173"/>
<path d="M55.7753 42.3543C62.4237 42.4887 69.0818 42.6615 75.7302 42.6471C76.0662 42.6471 76.0614 42.1383 75.7302 42.1287C69.0866 41.9319 62.4237 41.9175 55.7753 41.8695C55.4633 41.8695 55.4633 42.3447 55.7753 42.3543Z" fill="#707173"/>
<path d="M86.8717 43.4104C92.008 43.3815 97.1444 43.3719 102.281 43.2279C102.622 43.2183 102.626 42.6951 102.281 42.6951C97.1444 42.6807 92.008 42.8007 86.8717 42.9015C86.5453 42.9063 86.5453 43.4104 86.8717 43.4104Z" fill="#707173"/>
<path d="M113.139 42.8055C114.214 42.8055 115.289 42.8103 116.365 42.7959C116.706 42.7911 116.706 42.2679 116.365 42.2631C115.289 42.2487 114.214 42.2535 113.139 42.2535C112.789 42.2583 112.789 42.8055 113.139 42.8055Z" fill="#707173"/>
<path d="M51.2198 3.7071C56.601 3.69749 61.9821 3.65909 67.3584 3.62549C67.6993 3.62549 67.7041 3.09266 67.3584 3.09266C61.9821 3.12146 56.601 3.15026 51.2198 3.20306C50.8982 3.20786 50.8982 3.7071 51.2198 3.7071Z" fill="#707173"/>
<path d="M69.9986 3.64461C70.5843 3.60621 71.1699 3.5678 71.7603 3.5246C71.8996 3.515 72.0196 3.41419 72.0196 3.26538C72.0196 3.13578 71.8996 2.99657 71.7603 3.00617C71.1747 3.05417 70.5891 3.10217 69.9986 3.14538C69.8642 3.15498 69.749 3.25098 69.749 3.39499C69.7538 3.5246 69.869 3.65421 69.9986 3.64461Z" fill="#707173"/>
<path d="M74.5493 3.69264C77.3095 3.76465 80.0745 3.76945 82.8394 3.79825C85.5996 3.82705 88.3694 3.90385 91.1296 3.87025C91.48 3.86545 91.4752 3.34222 91.1296 3.32782C88.3694 3.23661 85.5996 3.26061 82.8394 3.23661C80.0793 3.21261 77.3143 3.16461 74.5493 3.18381C74.2229 3.18861 74.2229 3.68304 74.5493 3.69264Z" fill="#707173"/>
<path d="M93.3329 4.24953C93.6257 4.21593 93.9185 4.18233 94.2113 4.15353C94.2833 4.14393 94.3409 4.12473 94.3985 4.07672C94.461 4.01912 94.4801 3.93751 94.4706 3.85591C94.4609 3.7839 94.4273 3.7263 94.3697 3.6831C94.2977 3.6303 94.2257 3.62069 94.1393 3.6351C93.8465 3.6831 93.5585 3.7311 93.2657 3.7791C93.2129 3.7887 93.1457 3.84151 93.1217 3.88951C93.0977 3.93751 93.0881 3.99032 93.0929 4.04312C93.1121 4.14873 93.2129 4.25913 93.3329 4.24953Z" fill="#707173"/>
<path d="M97.0003 4.08627C97.6867 4.10067 98.3684 4.12467 99.0548 4.11507C99.3908 4.11027 99.3908 3.59664 99.0548 3.59183C98.3684 3.57263 97.6867 3.59183 97.0003 3.59664C96.6835 3.60144 96.6835 4.08147 97.0003 4.08627Z" fill="#707173"/>
<path d="M102.727 4.34551C107.614 4.1967 112.505 4.05269 117.392 3.88948C117.728 3.87988 117.733 3.35184 117.392 3.36624C112.501 3.51985 107.614 3.69746 102.727 3.87028C102.42 3.87508 102.415 4.35511 102.727 4.34551Z" fill="#707173"/>
<path d="M44.6194 3.79347C45.7427 3.75987 46.8707 3.75507 47.994 3.69267C48.33 3.67347 48.3348 3.15983 47.994 3.16943C46.8707 3.18864 45.7427 3.25584 44.6194 3.30384C44.3074 3.31824 44.3026 3.80307 44.6194 3.79347Z" fill="#707173"/>
<path d="M119.888 3.89904C120.229 3.90384 120.575 3.90864 120.915 3.90864C121.055 3.90864 121.184 3.78863 121.179 3.64462C121.175 3.50541 121.064 3.3806 120.915 3.3806C120.575 3.3854 120.229 3.3902 119.888 3.3902C119.759 3.3902 119.629 3.50541 119.639 3.63982C119.643 3.78383 119.749 3.89904 119.888 3.89904Z" fill="#707173"/>
<path d="M52.5399 0.841264C56.3081 0.798061 60.0716 0.754858 63.8398 0.711656C67.5985 0.668453 71.3811 0.740458 75.1397 0.572447C75.495 0.558046 75.4998 0.0252124 75.1397 0.0156118C71.3811 -0.0515925 67.6033 0.116418 63.8398 0.174022C60.0716 0.236426 56.3033 0.294029 52.5399 0.346833C52.2183 0.351633 52.2183 0.846064 52.5399 0.841264Z" fill="#707173"/>
<path d="M78.6536 0.874848C79.1912 0.846047 79.7337 0.822045 80.2665 0.774042C80.4057 0.759641 80.5401 0.658835 80.5305 0.510025C80.5257 0.370816 80.4153 0.236408 80.2665 0.246009C79.7289 0.27001 79.1912 0.322813 78.6536 0.370816C78.5192 0.380417 78.3944 0.481223 78.3992 0.625233C78.4088 0.754841 78.5144 0.884449 78.6536 0.874848Z" fill="#707173"/>
<path d="M92.4496 1.05243C94.1633 1.04283 95.8722 1.03323 97.5859 1.01883C98.426 1.01403 99.266 1.00923 100.101 1.00443C100.965 0.99963 101.858 1.05243 102.717 0.966028C103.063 0.932426 103.068 0.457196 102.717 0.428394C101.853 0.35639 100.965 0.423594 100.101 0.428394C99.2612 0.433194 98.4212 0.442795 97.5859 0.452396C95.8722 0.466797 94.1633 0.485998 92.4496 0.500399C92.0944 0.500399 92.0944 1.05723 92.4496 1.05243Z" fill="#707173"/>
<path d="M112.26 0.774032C114.56 0.788433 116.859 0.793233 119.158 0.788433C119.495 0.788433 119.495 0.2652 119.158 0.2652C116.859 0.260399 114.56 0.27 112.26 0.279601C111.939 0.279601 111.939 0.774032 112.26 0.774032Z" fill="#707173"/>
<path d="M18.1602 8.24486V10.8993H11.0386V32.1024H7.12166V10.8993H0V8.24486H18.1602Z" fill="#1B1C1F"/>
<path d="M36.4979 26.6964C36.4979 26.8691 36.5087 27.128 36.5302 27.4733C36.5518 27.797 36.595 28.1316 36.6597 28.4768C36.7245 28.8221 36.8216 29.1351 36.9511 29.4156C37.1021 29.6962 37.2964 29.8796 37.5337 29.9659L36.4979 32.1348C36.2173 32.1348 35.9152 32.07 35.5915 31.9406C35.2893 31.8111 34.9872 31.6276 34.6851 31.3903C34.4045 31.1529 34.1563 30.8939 33.9405 30.6133C33.7463 30.3112 33.5952 29.9875 33.4873 29.6422C33.3363 30.0091 33.0665 30.3544 32.6781 30.6781C32.3112 30.9802 31.8904 31.2608 31.4156 31.5197C30.9408 31.7571 30.4229 31.9406 29.8618 32.07C29.3223 32.1995 28.8151 32.2643 28.3403 32.2643C27.6066 32.2643 26.8944 32.1672 26.2038 31.9729C25.5348 31.7787 24.9413 31.4658 24.4234 31.0342C23.9055 30.6026 23.4954 30.0307 23.1933 29.3185C22.9128 28.6063 22.7725 27.7323 22.7725 26.6964C22.7725 25.7037 22.9775 24.8513 23.3875 24.1391C23.8191 23.4054 24.3587 22.8119 25.0061 22.3587C25.6751 21.8839 26.4304 21.5386 27.2721 21.3228C28.1137 21.0854 28.9662 20.9667 29.8294 20.9667H32.5809C32.5809 19.9093 32.527 19.0676 32.4191 18.4418C32.3112 17.8159 32.1278 17.3627 31.8688 17.0822C31.6098 16.7801 31.2861 16.5966 30.8976 16.5319C30.5308 16.4456 30.0884 16.4024 29.5704 16.4024C29.0957 16.4024 28.6425 16.4671 28.2108 16.5966C27.8008 16.7045 27.4124 16.8448 27.0455 17.0174C26.7002 17.1685 26.3873 17.3412 26.1067 17.5354C25.8477 17.7296 25.6535 17.8807 25.524 17.9886L24.0673 15.755C24.2831 15.5176 24.6068 15.2802 25.0385 15.0428C25.4701 14.7838 25.9664 14.5572 26.5275 14.363C27.0886 14.1688 27.6929 14.0177 28.3403 13.9098C29.0093 13.7803 29.6999 13.7156 30.4121 13.7156C31.0595 13.7156 31.6853 13.7803 32.2896 13.9098C32.9155 14.0393 33.4766 14.2551 33.9729 14.5572C34.4908 14.8594 34.9333 15.2694 35.3001 15.7873C35.6886 16.2837 35.9583 16.9095 36.1094 17.6649C36.2605 18.4202 36.3576 19.1863 36.4007 19.9632C36.4655 20.7186 36.4979 21.4739 36.4979 22.2292V26.6964ZM32.6133 23.2651H30.5416C30.1099 23.2651 29.6568 23.3082 29.182 23.3946C28.7072 23.4809 28.2648 23.6427 27.8548 23.8801C27.4447 24.1175 27.0994 24.4628 26.8189 24.916C26.5599 25.3476 26.4304 25.9087 26.4304 26.5993C26.4304 27.6784 26.6678 28.4553 27.1426 28.93C27.6389 29.4048 28.3511 29.6422 29.2791 29.6422C29.9265 29.6422 30.5416 29.4696 31.1242 29.1243C31.7285 28.779 32.2249 28.315 32.6133 27.7323V23.2651Z" fill="#1B1C1F"/>
<path d="M42.9876 30.6457L44.6386 28.0236C45.0702 28.3258 45.5773 28.6063 46.16 28.8653C46.7643 29.1243 47.5196 29.2538 48.426 29.2538C49.6129 29.2538 50.5409 29.0703 51.2099 28.7034C51.8789 28.3366 52.2134 27.797 52.2134 27.0849C52.2134 26.5669 52.0192 26.1569 51.6307 25.8548C51.2423 25.5311 50.7459 25.2613 50.1417 25.0455C49.559 24.8081 48.9224 24.5923 48.2318 24.3981C47.5628 24.1823 46.9369 23.9233 46.3542 23.6212C45.2105 23.0169 44.3472 22.3803 43.7645 21.7113C43.2034 21.0423 42.9229 20.1574 42.9229 19.0568C42.9229 18.1504 43.1063 17.3519 43.4732 16.6614C43.8617 15.9708 44.358 15.3989 44.9623 14.9457C45.5665 14.4709 46.2571 14.1148 47.034 13.8774C47.8109 13.6401 48.5986 13.5214 49.3971 13.5214C50.4762 13.5214 51.4689 13.6401 52.3753 13.8774C53.2817 14.0933 54.1557 14.4709 54.9973 15.0104L53.7349 17.6972C53.0874 17.3304 52.3861 17.0822 51.6307 16.9527C50.8754 16.8016 50.1309 16.7261 49.3971 16.7261C48.5986 16.7261 47.962 16.9095 47.4872 17.2764C47.034 17.6217 46.8074 18.172 46.8074 18.9273C46.8074 19.51 47.0125 19.974 47.4225 20.3193C47.8541 20.643 48.4044 20.9344 49.0734 21.1933C49.7424 21.4523 50.4546 21.7113 51.2099 21.9702C51.9652 22.2292 52.6666 22.5637 53.314 22.9737C53.983 23.3622 54.5334 23.8586 54.965 24.4628C55.3966 25.0671 55.6124 25.844 55.6124 26.7935C55.6124 27.7215 55.429 28.5308 55.0621 29.2214C54.6952 29.912 54.1989 30.4839 53.573 30.9371C52.9472 31.3902 52.2242 31.7248 51.4041 31.9406C50.5841 32.1564 49.7101 32.2643 48.7821 32.2643C48.221 32.2643 47.703 32.2427 47.2283 32.1995C46.7535 32.1779 46.2895 32.1132 45.8363 32.0053C45.3831 31.8974 44.9299 31.7355 44.4767 31.5197C44.0235 31.3039 43.5272 31.0126 42.9876 30.6457Z" fill="#1B1C1F"/>
<path d="M66.5694 26.5669C66.5694 27.3007 66.6665 27.8726 66.8607 28.2826C67.055 28.6927 67.3247 29.0056 67.67 29.2214C68.0369 29.4372 68.4361 29.5775 68.8678 29.6422C69.3209 29.6854 69.7957 29.7069 70.2921 29.7069V32.1024C70.0115 32.1456 69.731 32.1779 69.4504 32.1995C69.213 32.2211 68.9217 32.2319 68.5764 32.2319C68.2527 32.2535 67.929 32.2643 67.6053 32.2643C67.2816 32.2643 66.9471 32.2535 66.6018 32.2319C66.2781 32.2103 65.9975 32.1779 65.7601 32.1348C65.0264 32.0053 64.4545 31.6924 64.0444 31.196C63.6344 30.6781 63.3215 30.117 63.1057 29.5127C62.9114 28.8869 62.782 28.2826 62.7172 27.6999C62.6741 27.1173 62.6525 26.6641 62.6525 26.3403V16.4995H60.257V13.8451H62.6525V8.66568H66.5694V13.8451H69.4828V16.4995H66.5694V26.5669Z" fill="#1B1C1F"/>
<path d="M93.1617 13.8451C91.9747 17.0174 90.9173 19.8337 89.9893 22.2939C89.0613 24.7326 88.252 26.8799 87.5615 28.7358C86.8709 30.5702 86.2558 32.124 85.7163 33.3973C85.1984 34.6705 84.7128 35.728 84.2596 36.5696C83.828 37.4329 83.418 38.1019 83.0295 38.5767C82.641 39.073 82.2418 39.4507 81.8318 39.7096C81.4217 39.9686 80.9685 40.1197 80.4722 40.1628C79.9974 40.2276 79.4471 40.26 78.8212 40.26C78.627 40.26 78.4004 40.2276 78.1414 40.1628C77.8825 40.1197 77.6235 40.0549 77.3645 39.9686C77.1272 39.9039 76.9113 39.8283 76.7171 39.742C76.5229 39.6773 76.3934 39.6341 76.3287 39.6125C76.415 39.2241 76.5013 38.8572 76.5876 38.5119C76.6524 38.2098 76.7171 37.9184 76.7819 37.6379C76.8682 37.3789 76.9329 37.1955 76.9761 37.0876C77.1487 37.0876 77.4077 37.1415 77.753 37.2494C78.1199 37.3573 78.3896 37.4113 78.5623 37.4113C78.9076 37.4113 79.2097 37.3897 79.4687 37.3465C79.7492 37.325 79.9974 37.2279 80.2132 37.0552C80.429 36.9041 80.634 36.6668 80.8283 36.343C81.0225 36.0409 81.2383 35.5985 81.4757 35.0158L82.7058 32.1024L75.228 13.8451H79.145L84.4862 27.8942L89.2124 13.8451H93.1617Z" fill="#1B1C1F"/>
<path d="M127.085 19.51C127.085 21.4739 126.87 23.1572 126.438 24.5599C126.028 25.9411 125.499 27.1065 124.852 28.056C124.204 28.984 123.471 29.7177 122.651 30.2573C121.852 30.7968 121.075 31.2068 120.32 31.4874C119.564 31.7463 118.874 31.919 118.248 32.0053C117.622 32.07 117.158 32.1024 116.856 32.1024H107.825V8.24486H115.011C117.018 8.24486 118.777 8.56857 120.287 9.21599C121.82 9.84183 123.082 10.6835 124.075 11.7409C125.089 12.7984 125.844 14.0069 126.341 15.3665C126.837 16.7045 127.085 18.0857 127.085 19.51ZM115.561 29.2538C118.194 29.2538 120.093 28.4121 121.259 26.7288C122.424 25.0455 123.007 22.6069 123.007 19.4129C123.007 18.4202 122.888 17.4383 122.651 16.4671C122.413 15.496 121.949 14.622 121.259 13.8451C120.59 13.0466 119.672 12.4099 118.507 11.9352C117.342 11.4388 115.831 11.1906 113.975 11.1906H111.709V29.2538H115.561Z" fill="#1B1C1F"/>
<path d="M146.329 26.6964C146.329 26.8691 146.34 27.128 146.362 27.4733C146.383 27.797 146.427 28.1316 146.491 28.4768C146.556 28.8221 146.653 29.1351 146.783 29.4156C146.934 29.6962 147.128 29.8796 147.365 29.9659L146.329 32.1348C146.049 32.1348 145.747 32.07 145.423 31.9406C145.121 31.8111 144.819 31.6276 144.517 31.3903C144.236 31.1529 143.988 30.8939 143.772 30.6133C143.578 30.3112 143.427 29.9875 143.319 29.6422C143.168 30.0091 142.898 30.3544 142.51 30.6781C142.143 30.9802 141.722 31.2608 141.247 31.5197C140.772 31.7571 140.254 31.9406 139.693 32.07C139.154 32.1995 138.647 32.2643 138.172 32.2643C137.438 32.2643 136.726 32.1672 136.035 31.9729C135.366 31.7787 134.773 31.4658 134.255 31.0342C133.737 30.6026 133.327 30.0307 133.025 29.3185C132.744 28.6063 132.604 27.7323 132.604 26.6964C132.604 25.7037 132.809 24.8513 133.219 24.1391C133.651 23.4054 134.19 22.8119 134.838 22.3587C135.507 21.8839 136.262 21.5386 137.104 21.3228C137.945 21.0854 138.798 20.9667 139.661 20.9667H142.412C142.412 19.9093 142.359 19.0676 142.251 18.4418C142.143 17.8159 141.959 17.3627 141.7 17.0822C141.441 16.7801 141.118 16.5966 140.729 16.5319C140.362 16.4456 139.92 16.4024 139.402 16.4024C138.927 16.4024 138.474 16.4671 138.042 16.5966C137.632 16.7045 137.244 16.8448 136.877 17.0174C136.532 17.1685 136.219 17.3412 135.938 17.5354C135.679 17.7296 135.485 17.8807 135.356 17.9886L133.899 15.755C134.115 15.5176 134.438 15.2802 134.87 15.0428C135.302 14.7838 135.798 14.5572 136.359 14.363C136.92 14.1688 137.524 14.0177 138.172 13.9098C138.841 13.7803 139.531 13.7156 140.244 13.7156C140.891 13.7156 141.517 13.7803 142.121 13.9098C142.747 14.0393 143.308 14.2551 143.804 14.5572C144.322 14.8594 144.765 15.2694 145.132 15.7873C145.52 16.2837 145.79 16.9095 145.941 17.6649C146.092 18.4202 146.189 19.1863 146.232 19.9632C146.297 20.7186 146.329 21.4739 146.329 22.2292V26.6964ZM142.445 23.2651H140.373C139.941 23.2651 139.488 23.3082 139.014 23.3946C138.539 23.4809 138.096 23.6427 137.686 23.8801C137.276 24.1175 136.931 24.4628 136.65 24.916C136.391 25.3476 136.262 25.9087 136.262 26.5993C136.262 27.6784 136.499 28.4553 136.974 28.93C137.47 29.4048 138.183 29.6422 139.111 29.6422C139.758 29.6422 140.373 29.4696 140.956 29.1243C141.56 28.779 142.056 28.315 142.445 27.7323V23.2651Z" fill="#1B1C1F"/>
<path d="M170.785 13.8451C169.598 17.0174 168.541 19.8337 167.613 22.2939C166.685 24.7326 165.876 26.8799 165.185 28.7358C164.494 30.5702 163.879 32.124 163.34 33.3973C162.822 34.6705 162.336 35.728 161.883 36.5696C161.452 37.4329 161.041 38.1019 160.653 38.5767C160.265 39.073 159.865 39.4507 159.455 39.7096C159.045 39.9686 158.592 40.1197 158.096 40.1628C157.621 40.2276 157.071 40.26 156.445 40.26C156.251 40.26 156.024 40.2276 155.765 40.1628C155.506 40.1197 155.247 40.0549 154.988 39.9686C154.751 39.9039 154.535 39.8283 154.341 39.742C154.146 39.6773 154.017 39.6341 153.952 39.6125C154.038 39.2241 154.125 38.8572 154.211 38.5119C154.276 38.2098 154.341 37.9184 154.405 37.6379C154.492 37.3789 154.556 37.1955 154.6 37.0876C154.772 37.0876 155.031 37.1415 155.376 37.2494C155.743 37.3573 156.013 37.4113 156.186 37.4113C156.531 37.4113 156.833 37.3897 157.092 37.3465C157.373 37.325 157.621 37.2279 157.837 37.0552C158.053 36.9041 158.258 36.6668 158.452 36.343C158.646 36.0409 158.862 35.5985 159.099 35.0158L160.329 32.1024L152.852 13.8451H156.768L162.11 27.8942L166.836 13.8451H170.785Z" fill="#1B1C1F"/>
</svg>
