<svg width="151" height="109" viewBox="0 0 151 109" fill="none" xmlns="http://www.w3.org/2000/svg">
<path d="M103.592 44.6587H48.4942C44.4124 44.6587 41.1075 48.1305 41.9944 52.1148C46.9184 74.2351 66.4682 79.336 76.5325 78.9489C97.5564 78.9489 106.764 63.8791 109.884 52.0928C110.93 48.1405 107.68 44.6587 103.592 44.6587Z" fill="white" stroke="#1B1C1F" stroke-width="2.82944"/>
<path d="M108.825 54.9949L56.4722 54.3223C56.4722 68.5826 69.7785 76.0715 76.4316 78.538C96.3911 79.2106 105.226 64.0758 108.825 54.9949Z" fill="#1B1C1F"/>
<path d="M106.286 54.9138H45.8174C44.1138 54.9138 42.6494 53.7057 42.3257 52.0331C41.6178 48.3755 44.4197 44.9792 48.1452 44.9792H103.958C107.684 44.9792 110.486 48.3755 109.778 52.0331C109.454 53.7057 107.99 54.9138 106.286 54.9138Z" fill="white" stroke="#1B1C1F" stroke-width="2.82944"/>
<path d="M101.496 44.6586H49.7792C47.9013 44.6586 46.0817 43.4222 46.0887 41.5443C46.0933 40.2925 46.4531 39.4301 47.024 38.8586C49.1392 36.7409 52.428 34.6586 54.6492 32.6524C55.6098 31.7847 56.8705 31.5426 58.1502 31.6483C60.4594 31.8389 62.9073 30.9167 65.0718 30.0899C65.1082 30.076 65.1446 30.0626 65.181 30.0498C67.6354 29.1874 70.7859 28.3287 73.255 27.5094C73.7199 27.3551 74.1696 27.3221 74.597 27.38C76.9667 27.7008 79.6066 28.672 81.9844 28.4185C83.3621 28.2716 84.5229 28.5884 85.4732 29.1458C87.7094 30.4575 90.9164 31.3276 93.2026 32.5503C93.7932 32.8662 94.2987 33.325 94.7264 33.8642C96.3563 35.9186 98.9168 37.4051 101.519 37.7331C103.941 38.0385 104.854 39.6934 105.024 41.4978C105.202 43.3817 103.389 44.6586 101.496 44.6586Z" fill="white" stroke="#1B1C1F" stroke-width="2.82944"/>
<path d="M83.5752 38.2786C85.3654 38.3215 89.064 39.0566 89.5372 41.6533" stroke="#1B1C1F" stroke-width="2.82944" stroke-linecap="round"/>
<path d="M70.2151 34.1853C72.0053 34.2283 75.7039 34.9633 76.1771 37.5601" stroke="#1B1C1F" stroke-width="2.82944" stroke-linecap="round"/>
<path d="M58.5384 42.0793C59.5636 40.6111 62.2204 37.935 64.646 38.9759" stroke="#1B1C1F" stroke-width="2.82944" stroke-linecap="round"/>
<path d="M64.9175 11.7808L62.0157 15.4314C61.0672 16.6247 61.5209 18.3938 62.9267 18.9833V18.9833C64.046 19.4527 64.6078 20.7111 64.2101 21.8579L62.304 27.3534" stroke="#1B1C1F" stroke-width="2.12208"/>
<path d="M77.4964 1L73.7121 5.12834C72.3771 6.5847 72.9512 8.93033 74.8079 9.6055V9.6055C76.2787 10.1403 77.0152 11.7862 76.4339 13.2392L73.9027 19.5673" stroke="#1B1C1F" stroke-width="2.12208"/>
<path d="M93.0684 5.79102L89.2841 9.91935C87.9491 11.3757 88.5232 13.7214 90.3799 14.3965V14.3965C91.8507 14.9314 92.5872 16.5772 92.0059 18.0303L89.4747 24.3583" stroke="#1B1C1F" stroke-width="2.12208"/>
<path d="M5.62254 93.0253C5.82098 92.6285 6.11865 92.0883 6.51553 91.4047C6.91242 90.7212 7.16598 90.2802 7.27623 90.0818C6.5927 90.0377 6.10762 89.9826 5.82098 89.9164C5.79893 90.8645 5.73279 91.9008 5.62254 93.0253ZM4.53111 98.2179C2.67898 102.495 1.75291 105.483 1.75291 107.181C1.75291 107.754 1.91828 108.041 2.24902 108.041C2.82229 108.041 3.58299 104.767 4.53111 98.2179ZM5.4241 89.0565V88.7588C5.4241 88.2737 5.3359 88.0312 5.15951 88.0312C5.00516 88.0312 4.92799 88.1084 4.92799 88.2627C4.92799 88.5935 5.09336 88.8581 5.4241 89.0565ZM17.4629 89.718C17.4629 89.9164 17.3637 90.0156 17.1653 90.0156C17.1212 90.0156 16.9338 90.0046 16.603 89.9826C16.2943 89.9385 15.8534 89.9054 15.2801 89.8833C14.7289 89.8392 14.1445 89.8172 13.5272 89.8172C12.7775 89.8172 11.8404 89.8392 10.7159 89.8833C9.59139 89.9054 8.87479 89.9164 8.5661 89.9164C7.61799 91.7244 6.51553 93.9735 5.25873 96.6635C4.81774 100.037 4.27754 102.925 3.63811 105.329C3.02074 107.754 2.40336 108.967 1.78598 108.967C1.12451 108.967 0.79377 108.383 0.79377 107.214C0.79377 104.105 2.21594 99.7503 5.06029 94.1499C5.25873 92.2977 5.36897 90.8535 5.39102 89.8172C4.77365 89.6628 4.28856 89.4424 3.93578 89.1557C3.60504 88.8691 3.43967 88.5824 3.43967 88.2958C3.43967 88.0312 3.56094 87.8107 3.80348 87.6343C4.06807 87.4359 4.40984 87.3367 4.82877 87.3367C5.09336 87.3367 5.32488 87.4579 5.52332 87.7005C5.74381 87.943 5.85406 88.2627 5.85406 88.6596V89.2549C6.27299 89.4093 6.84627 89.5085 7.57389 89.5526C8.91889 87.2595 10.1867 85.3302 11.3774 83.7647C12.5901 82.1992 13.3839 81.4165 13.7587 81.4165C14.0233 81.4165 14.1556 81.4936 14.1556 81.648C14.1556 82.1771 13.5933 83.2796 12.4688 84.9553C11.3664 86.609 10.2088 88.0753 8.99606 89.3542C10.7159 89.0234 12.7444 88.8581 15.0816 88.8581C16.6692 88.8581 17.4629 89.1447 17.4629 89.718ZM23.0193 79.6305C19.9325 80.336 15.9636 80.6888 11.1128 80.6888C10.0103 80.6888 9.01811 80.7329 8.13615 80.8211C7.25418 80.9093 6.36119 81.0967 5.45717 81.3834C4.55315 81.67 3.79246 82.0449 3.17508 82.5079C2.57975 82.9489 2.09467 83.5662 1.71984 84.36C1.345 85.1538 1.15758 86.0799 1.15758 87.1382C1.15758 87.469 1.08041 87.7225 0.926065 87.8989C0.79377 88.0753 0.661475 88.1635 0.52918 88.1635C0.396885 88.1635 0.275615 88.0533 0.165369 87.8328C0.0551229 87.6123 0 87.3587 0 87.0721C0 85.9035 0.220492 84.8892 0.661475 84.0293C1.12451 83.1694 1.70881 82.4858 2.41438 81.9787C3.11996 81.4716 4.00193 81.0747 5.06029 80.7881C6.1407 80.4794 7.19906 80.2809 8.23537 80.1927C9.29373 80.0825 10.4734 80.0274 11.7743 80.0274C16.1841 80.0274 19.7009 79.6966 22.3248 79.0351C22.5012 78.991 22.7548 78.969 23.0855 78.969C23.6808 78.969 23.9785 79.0462 23.9785 79.2005C23.9785 79.3549 23.6588 79.4982 23.0193 79.6305Z" fill="#1B1C1F"/>
<path d="M29.1539 95.4728C29.1539 95.1641 29.3413 94.6239 29.7161 93.8522C30.113 93.0584 30.3114 92.5292 30.3114 92.2646C30.3114 92.0883 30.2232 91.9449 30.0469 91.8347C29.8925 91.7024 29.5948 91.5591 29.1539 91.4047C28.7349 91.2504 28.4814 91.1512 28.3932 91.1071C27.6214 91.7024 26.7285 92.2316 25.7142 92.6946C25.626 92.7387 25.5488 92.7608 25.4827 92.7608C25.3724 92.7608 25.3173 92.6946 25.3173 92.5623C25.3173 92.4521 25.3945 92.3639 25.5488 92.2977C26.4528 91.9008 27.2576 91.3937 27.9632 90.7763C27.8309 90.644 27.7648 90.5007 27.7648 90.3464C27.7648 89.9715 28.0294 89.5085 28.5585 88.9573C29.0877 88.384 29.5287 88.0974 29.8815 88.0974C30.1681 88.0974 30.3114 88.1966 30.3114 88.395C30.3114 89.0565 29.8594 89.7951 28.9554 90.611C29.1098 90.8094 29.5948 91.096 30.4107 91.4709C31.2265 91.8237 31.6344 92.1765 31.6344 92.5292C31.6344 92.7718 31.447 93.312 31.0721 94.1499C30.6973 94.9657 30.5099 95.5169 30.5099 95.8035C30.5099 96.3768 30.7194 96.6635 31.1383 96.6635C32.6597 96.6635 34.6882 96.2886 37.2239 95.539C39.7595 94.7893 41.777 94.1168 43.2764 93.5215C44.7757 92.9261 45.7459 92.5182 46.1869 92.2977C46.3191 92.2316 46.3963 92.1985 46.4184 92.1985C46.5286 92.1985 46.5837 92.2757 46.5837 92.43C46.5837 92.5403 46.5066 92.6285 46.3522 92.6946C45.9112 92.8931 44.886 93.2899 43.2764 93.8853C41.6888 94.4585 39.6052 95.109 37.0254 95.8366C34.4677 96.5642 32.5164 96.928 31.1714 96.928C29.8264 96.928 29.1539 96.443 29.1539 95.4728Z" fill="#1B1C1F"/>
<path d="M46.7319 93.2569C46.5996 93.4774 46.5335 93.6978 46.5335 93.9183C46.5335 94.2491 46.798 94.4144 47.3272 94.4144C48.1871 94.4144 48.9258 94.1499 49.5432 93.6207C50.1826 93.0694 50.5023 92.5513 50.5023 92.0662C50.5023 91.6914 50.2377 91.504 49.7085 91.504C49.1132 91.504 48.5399 91.6693 47.9887 92.0001C47.4375 92.3087 47.0185 92.7277 46.7319 93.2569ZM50.5685 90.5779C51.3843 90.5779 51.7922 90.9086 51.7922 91.5701C51.7922 92.2977 51.3402 93.0364 50.4362 93.786C49.5322 94.5357 48.4297 94.9106 47.1288 94.9106C46.6437 94.9106 46.2799 94.8334 46.0374 94.679C45.9933 94.9436 45.9712 95.1531 45.9712 95.3074C45.9712 95.991 46.2578 96.5532 46.8311 96.9942C47.4044 97.4131 48.2974 97.6226 49.5101 97.6226C52.9057 97.6226 58.1203 95.9248 65.154 92.5292C65.3745 92.419 65.5288 92.3418 65.617 92.2977C65.7493 92.2316 65.8265 92.1985 65.8485 92.1985C65.9808 92.1985 66.047 92.2757 66.047 92.43C66.047 92.5403 65.9588 92.6285 65.7824 92.6946C63.4893 93.9294 60.7552 95.1421 57.5801 96.3327C54.4271 97.5013 51.6709 98.0856 49.3117 98.0856C47.7021 98.0856 46.5114 97.8431 45.7397 97.358C44.968 96.8729 44.5821 96.2445 44.5821 95.4728C44.5821 94.3483 45.2215 93.2569 46.5004 92.1985C47.7572 91.1181 49.1132 90.5779 50.5685 90.5779Z" fill="#1B1C1F"/>
<path d="M69.6018 98.1849C67.1102 98.5156 65.8644 98.9015 65.8644 99.3424C65.8644 99.6952 66.2613 99.8716 67.0551 99.8716C67.6945 99.8716 68.2788 99.7393 68.808 99.4747C69.3372 99.2322 69.6018 98.8574 69.6018 98.3502V98.1849ZM85.1795 92.6946C79.579 95.7594 75.0038 97.5013 71.4539 97.9203L70.4617 98.0526V98.251C70.4617 98.9125 70.1309 99.4196 69.4695 99.7724C68.808 100.147 68.0583 100.335 67.2204 100.335C65.9195 100.335 65.2691 99.8937 65.2691 99.0117C65.2691 98.6148 66.6913 98.24 69.5356 97.8872C69.3813 97.3139 68.7859 96.4099 67.7496 95.1751C66.7354 93.9404 66.2282 93.0694 66.2282 92.5623C66.2282 92.0111 66.5259 91.515 67.1212 91.074C67.7386 90.611 68.3449 90.3794 68.9403 90.3794C69.4254 90.3794 69.6679 90.4566 69.6679 90.611C69.6679 90.6992 69.5466 90.7984 69.3041 90.9086C69.0836 91.0189 68.808 91.1732 68.4772 91.3717C68.1465 91.5701 67.904 91.8016 67.7496 92.0662C67.6614 92.2206 67.6173 92.3859 67.6173 92.5623C67.6173 93.0474 68.0583 93.8412 68.9403 94.9436C69.8222 96.0461 70.3184 96.9721 70.4286 97.7218L71.2554 97.6226C75.4227 96.8729 80.009 95.098 85.0141 92.2977C85.1464 92.2316 85.2236 92.1985 85.2456 92.1985C85.3779 92.1985 85.4441 92.2757 85.4441 92.43C85.4441 92.5403 85.3559 92.6285 85.1795 92.6946Z" fill="#1B1C1F"/>
<path d="M87.5436 91.4047C92.9016 87.5241 96.1979 84.2939 97.4327 81.7141C97.8296 80.8542 98.028 80.2919 98.028 80.0274C98.028 79.851 97.9508 79.7628 97.7965 79.7628C97.2673 79.7628 95.779 81.1078 93.3315 83.7978C90.8841 86.4878 88.9548 89.0234 87.5436 91.4047ZM97.7634 79.1674C98.2044 79.1674 98.4249 79.4541 98.4249 80.0274C98.4249 80.5345 98.2375 81.196 97.8626 82.0118C96.5617 84.7679 92.9126 88.2737 86.9152 92.5292C86.2317 93.786 85.8899 94.8003 85.8899 95.572C85.8899 96.0571 85.9671 96.2996 86.1214 96.2996C86.1876 96.2996 86.4191 96.0792 86.816 95.6382C87.2349 95.1972 87.698 94.7121 88.2051 94.1829C88.7122 93.6537 89.3516 93.1687 90.1234 92.7277C90.8951 92.2867 91.6448 92.0662 92.3724 92.0662C92.7472 92.0662 93.0449 92.3528 93.2654 92.9261C93.4859 93.4994 93.6402 94.1388 93.7284 94.8444C93.8166 95.55 94.0371 96.1894 94.3899 96.7627C94.7647 97.336 95.2719 97.6226 95.9113 97.6226C96.7932 97.6226 97.8185 97.4572 98.9871 97.1265C100.178 96.7737 101.346 96.3437 102.493 95.8366C103.64 95.3074 104.676 94.8003 105.602 94.3152C106.55 93.8301 107.388 93.3781 108.115 92.9592C108.865 92.5182 109.251 92.2977 109.273 92.2977C109.405 92.2316 109.483 92.1985 109.505 92.1985C109.615 92.1985 109.67 92.2757 109.67 92.43C109.67 92.5403 109.593 92.6285 109.438 92.6946C109.416 92.6946 109.075 92.882 108.413 93.2569C107.774 93.6096 107.101 93.9735 106.396 94.3483C105.69 94.7011 104.797 95.131 103.717 95.6382C102.636 96.1233 101.6 96.5532 100.608 96.928C99.6155 97.2808 98.5682 97.5895 97.4657 97.8541C96.3853 98.1187 95.4152 98.251 94.5552 98.251C94.0702 98.251 93.6512 97.9644 93.2984 97.3911C92.9457 96.8178 92.7031 96.1894 92.5708 95.5059C92.4385 94.8224 92.2732 94.194 92.0747 93.6207C91.8983 93.0474 91.7109 92.7608 91.5125 92.7608C90.9612 92.7608 90.3439 92.9923 89.6603 93.4553C88.9989 93.8963 88.4256 94.3924 87.9405 94.9436C87.4554 95.4728 87.0144 95.9689 86.6175 96.4319C86.2427 96.8729 86.0222 97.0934 85.9561 97.0934C85.0741 97.0934 84.6331 96.7847 84.6331 96.1674C84.6331 94.9326 84.9969 93.5215 85.7246 91.9339C86.4742 90.3243 87.4113 88.8029 88.5358 87.3697C89.6603 85.9145 90.8289 84.5585 92.0416 83.3017C93.2543 82.0449 94.3789 81.0416 95.4152 80.2919C96.4735 79.5423 97.2563 79.1674 97.7634 79.1674Z" fill="#1B1C1F"/>
<path d="M109.818 93.2569C109.686 93.4774 109.62 93.6978 109.62 93.9183C109.62 94.2491 109.884 94.4144 110.413 94.4144C111.273 94.4144 112.012 94.1499 112.629 93.6207C113.269 93.0694 113.589 92.5513 113.589 92.0662C113.589 91.6914 113.324 91.504 112.795 91.504C112.199 91.504 111.626 91.6693 111.075 92.0001C110.524 92.3087 110.105 92.7277 109.818 93.2569ZM113.655 90.5779C114.471 90.5779 114.878 90.9086 114.878 91.5701C114.878 92.2977 114.426 93.0364 113.522 93.786C112.618 94.5357 111.516 94.9106 110.215 94.9106C109.73 94.9106 109.366 94.8334 109.124 94.679C109.079 94.9436 109.057 95.1531 109.057 95.3074C109.057 95.991 109.344 96.5532 109.917 96.9942C110.491 97.4131 111.384 97.6226 112.596 97.6226C115.992 97.6226 121.207 95.9248 128.24 92.5292C128.461 92.419 128.615 92.3418 128.703 92.2977C128.836 92.2316 128.913 92.1985 128.935 92.1985C129.067 92.1985 129.133 92.2757 129.133 92.43C129.133 92.5403 129.045 92.6285 128.869 92.6946C126.576 93.9294 123.841 95.1421 120.666 96.3327C117.513 97.5013 114.757 98.0856 112.398 98.0856C110.788 98.0856 109.598 97.8431 108.826 97.358C108.054 96.8729 107.668 96.2445 107.668 95.4728C107.668 94.3483 108.308 93.2569 109.587 92.1985C110.843 91.1181 112.199 90.5779 113.655 90.5779Z" fill="#1B1C1F"/>
<path d="M132.986 95.4728C132.986 95.1641 133.173 94.6239 133.548 93.8522C133.945 93.0584 134.143 92.5292 134.143 92.2646C134.143 92.0883 134.055 91.9449 133.879 91.8347C133.724 91.7024 133.427 91.5591 132.986 91.4047C132.567 91.2504 132.313 91.1512 132.225 91.1071C131.453 91.7024 130.56 92.2316 129.546 92.6946C129.458 92.7387 129.381 92.7608 129.314 92.7608C129.204 92.7608 129.149 92.6946 129.149 92.5623C129.149 92.4521 129.226 92.3639 129.381 92.2977C130.285 91.9008 131.089 91.3937 131.795 90.7763C131.663 90.644 131.597 90.5007 131.597 90.3464C131.597 89.9715 131.861 89.5085 132.39 88.9573C132.919 88.384 133.36 88.0974 133.713 88.0974C134 88.0974 134.143 88.1966 134.143 88.395C134.143 89.0565 133.691 89.7951 132.787 90.611C132.942 90.8094 133.427 91.096 134.242 91.4709C135.058 91.8237 135.466 92.1765 135.466 92.5292C135.466 92.7718 135.279 93.312 134.904 94.1499C134.529 94.9657 134.342 95.5169 134.342 95.8035C134.342 96.3768 134.551 96.6635 134.97 96.6635C136.491 96.6635 138.52 96.2886 141.056 95.539C143.591 94.7893 145.609 94.1168 147.108 93.5215C148.607 92.9261 149.578 92.5182 150.019 92.2977C150.151 92.2316 150.228 92.1985 150.25 92.1985C150.36 92.1985 150.416 92.2757 150.416 92.43C150.416 92.5403 150.338 92.6285 150.184 92.6946C149.743 92.8931 148.718 93.2899 147.108 93.8853C145.521 94.4585 143.437 95.109 140.857 95.8366C138.299 96.5642 136.348 96.928 135.003 96.928C133.658 96.928 132.986 96.443 132.986 95.4728Z" fill="#1B1C1F"/>
</svg>
