<svg width="131" height="75" viewBox="0 0 131 75" fill="none" xmlns="http://www.w3.org/2000/svg">
<path d="M0 22.3031C0 20.0656 1.48649 18.1005 3.63954 17.4917L64.1395 0.384686C65.0291 0.13316 65.9709 0.13316 66.8605 0.384686L127.36 17.4917C129.514 18.1005 131 20.0656 131 22.3031V69.5839C131 72.3454 128.761 74.5839 126 74.5839H5C2.23858 74.5839 0 72.3454 0 69.5839V22.3031Z" fill="#1B1C1F"/>
<path d="M17.0374 56.8943V36.7783H12.4309V34.4237H39.1143L39.0936 36.7783H20.1194V56.8943H17.0374Z" fill="white"/>
<path d="M27.5343 56.8943C26.8715 56.8943 26.2971 56.6623 25.8111 56.1984C25.3471 55.7344 25.1151 55.16 25.1151 54.4751V49.4709C25.1151 48.8081 25.3471 48.2448 25.8111 47.7808C26.2971 47.2947 26.8715 47.0517 27.5343 47.0517H30.1193C30.4728 47.0517 30.76 46.9412 30.9809 46.7203C31.2239 46.4773 31.3455 46.1901 31.3455 45.8587V44.6325C31.3455 44.3011 31.2239 44.0249 30.9809 43.804C30.76 43.5609 30.4728 43.4394 30.1193 43.4394H25.5839V40.3243H32.0414C32.7042 40.3243 33.2676 40.5673 33.7315 41.0533C34.2176 41.5173 34.4606 42.0807 34.4606 42.7435V56.8943H27.5343ZM29.4233 53.7792H31.3455V50.1669H29.4233C29.0919 50.1669 28.8047 50.2884 28.5617 50.5314C28.3407 50.7524 28.2303 51.0285 28.2303 51.3599V52.5861C28.2303 52.9175 28.3407 53.2047 28.5617 53.4478C28.8047 53.6687 29.0919 53.7792 29.4233 53.7792Z" fill="white"/>
<path d="M38.8608 56.8943C38.198 56.8943 37.6346 56.6623 37.1706 56.1984C36.7066 55.7123 36.4747 55.1379 36.4747 54.4751V51.7245H39.5567V52.5861C39.5567 52.9175 39.6782 53.2047 39.9212 53.4478C40.1643 53.6687 40.4515 53.7792 40.7829 53.7792H41.4788C41.8102 53.7792 42.0864 53.6687 42.3073 53.4478C42.5504 53.2047 42.6719 52.9175 42.6719 52.5861V51.3599C42.6719 51.0285 42.5504 50.7524 42.3073 50.5314C42.0864 50.2884 41.8102 50.1669 41.4788 50.1669H38.8608C38.198 50.1669 37.6346 49.9349 37.1706 49.4709C36.7066 48.9849 36.4747 48.4105 36.4747 47.7477V42.7435C36.4747 42.0807 36.7066 41.5173 37.1706 41.0533C37.6346 40.5673 38.198 40.3243 38.8608 40.3243H43.401C44.0638 40.3243 44.6271 40.5673 45.0911 41.0533C45.5551 41.5173 45.787 42.0807 45.787 42.7435V45.4941H42.6719V44.6325C42.6719 44.3011 42.5504 44.0249 42.3073 43.804C42.0864 43.5609 41.8102 43.4394 41.4788 43.4394H40.7829C40.4515 43.4394 40.1643 43.5609 39.9212 43.804C39.6782 44.0249 39.5567 44.3011 39.5567 44.6325V45.8587C39.5567 46.1901 39.6782 46.4773 39.9212 46.7203C40.1643 46.9412 40.4515 47.0517 40.7829 47.0517H43.401C44.0638 47.0517 44.6271 47.2947 45.0911 47.7808C45.5551 48.2448 45.787 48.8081 45.787 49.4709V54.6077C45.7649 55.2263 45.5219 55.7676 45.058 56.2315C44.594 56.6734 44.0417 56.8943 43.401 56.8943H38.8608Z" fill="white"/>
<path d="M50.6705 56.8943V36.7783H41.117V34.4236L68.2527 34.4237V36.7783H53.7856V40.3243V43.4394V56.8943H50.6705Z" fill="white"/>
<path d="M60.5156 65.1794C59.8307 65.1794 59.2563 64.9474 58.7923 64.4834C58.3284 64.0195 58.0964 63.445 58.0964 62.7601V59.1479H61.2116V60.8711C61.2116 61.1805 61.3331 61.4566 61.5761 61.6996C61.8191 61.9427 62.0953 62.0642 62.4046 62.0642H63.1337C63.443 62.0642 63.7192 61.9427 63.9622 61.6996C64.2052 61.4566 64.3267 61.1805 64.3267 60.8711V56.8943H60.5156C59.8307 56.8943 59.2563 56.6623 58.7923 56.1984C58.3284 55.7344 58.0964 55.16 58.0964 54.4751V40.3243H61.2116V52.5861C61.2116 52.8954 61.3331 53.1716 61.5761 53.4146C61.8191 53.6576 62.0953 53.7792 62.4046 53.7792H64.3267V40.3243H67.4419V62.7601C67.4419 63.445 67.2099 64.0195 66.746 64.4834C66.282 64.9474 65.7186 65.1794 65.0558 65.1794H60.5156Z" fill="white"/>
<path d="M71.7885 56.8943V34.4237H93.6787V36.7783H74.8705V42.5115H81.0346L80.3386 45.5935H74.8705V56.8943H71.7885Z" fill="white"/>
<path d="M86.9451 56.8943C86.2602 56.8943 85.6857 56.6623 85.2218 56.1984C84.7578 55.7123 84.5258 55.1379 84.5258 54.4751V42.7435C84.5258 42.0807 84.7578 41.5173 85.2218 41.0533C85.6857 40.5673 86.2602 40.3243 86.9451 40.3243H91.4521C92.1149 40.3243 92.6783 40.5673 93.1423 41.0533C93.6062 41.5173 93.8382 42.0807 93.8382 42.7435V54.4751C93.8382 55.1379 93.6062 55.7123 93.1423 56.1984C92.6783 56.6623 92.1149 56.8943 91.4521 56.8943H86.9451ZM88.834 53.7792H89.53C89.8614 53.7792 90.1486 53.6687 90.3916 53.4478C90.6347 53.2047 90.7562 52.9175 90.7562 52.5861V44.6325C90.7562 44.3011 90.6347 44.0249 90.3916 43.804C90.1486 43.5609 89.8614 43.4394 89.53 43.4394H88.834C88.5026 43.4394 88.2154 43.5609 87.9724 43.804C87.7515 44.0249 87.641 44.3011 87.641 44.6325V52.5861C87.641 52.9175 87.7515 53.2047 87.9724 53.4478C88.2154 53.6687 88.5026 53.7792 88.834 53.7792Z" fill="white"/>
<path d="M98.5635 56.8943C97.8786 56.8943 97.3042 56.6623 96.8402 56.1984C96.3763 55.7123 96.1443 55.1379 96.1443 54.4751V42.7435C96.1443 42.0807 96.3763 41.5173 96.8402 41.0533C97.3042 40.5673 97.8786 40.3243 98.5635 40.3243H103.071C103.733 40.3243 104.297 40.5673 104.761 41.0533C105.225 41.5173 105.457 42.0807 105.457 42.7435V54.4751C105.457 55.1379 105.225 55.7123 104.761 56.1984C104.297 56.6623 103.733 56.8943 103.071 56.8943H98.5635ZM100.453 53.7792H101.148C101.48 53.7792 101.767 53.6687 102.01 53.4478C102.253 53.2047 102.375 52.9175 102.375 52.5861V44.6325C102.375 44.3011 102.253 44.0249 102.01 43.804C101.767 43.5609 101.48 43.4394 101.148 43.4394H100.453C100.121 43.4394 99.8339 43.5609 99.5909 43.804C99.3699 44.0249 99.2595 44.3011 99.2595 44.6325V52.5861C99.2595 52.9175 99.3699 53.2047 99.5909 53.4478C99.8339 53.6687 100.121 53.7792 100.453 53.7792Z" fill="white"/>
<path d="M112.153 56.8943C111.468 56.8943 110.894 56.6623 110.43 56.1984C109.966 55.7344 109.734 55.16 109.734 54.4751V42.7435C109.734 42.0586 109.966 41.4842 110.43 41.0202C110.894 40.5562 111.468 40.3243 112.153 40.3243H115.964V36.7783H99.4455V34.4237H119.079V56.8943H112.153ZM114.042 53.7792H115.964V43.4394H114.042C113.733 43.4394 113.456 43.5499 113.213 43.7708C112.97 43.9918 112.849 44.279 112.849 44.6325V52.5861C112.849 52.8954 112.97 53.1716 113.213 53.4146C113.456 53.6576 113.733 53.7792 114.042 53.7792Z" fill="white"/>
<rect x="63.1094" y="12.4309" width="5.73723" height="7.64964" rx="2.86861" fill="white"/>
<path d="M119.526 32.5113C119.526 28.7073 113.816 25.059 103.781 22.3692C93.7455 19.6794 80.1346 18.1682 65.9425 18.1682C51.7503 18.1682 38.1395 19.6794 28.1041 22.3692C18.0687 25.059 12.4309 28.7073 12.4309 32.5113H119.526Z" fill="white"/>
</svg>
