<svg width="113" height="113" viewBox="0 0 113 113" fill="none" xmlns="http://www.w3.org/2000/svg">
<path d="M56.4157 112.831C87.5732 112.831 112.831 87.5732 112.831 56.4157C112.831 25.2582 87.5732 0 56.4157 0C25.2582 0 0 25.2582 0 56.4157C0 87.5732 25.2582 112.831 56.4157 112.831Z" fill="#1B1C1F"/>
<path d="M56.4156 107.703C84.7406 107.703 107.703 84.7406 107.703 56.4156C107.703 28.0906 84.7406 5.12866 56.4156 5.12866C28.0906 5.12866 5.12866 28.0906 5.12866 56.4156C5.12866 84.7406 28.0906 107.703 56.4156 107.703Z" fill="white"/>
<path d="M24.6526 60.0992L24.6361 60.3008C24.6418 60.3379 24.6625 60.3695 24.6981 60.3956C24.7399 60.4208 24.7855 60.4296 24.8349 60.422C24.8843 60.4145 24.9206 60.3836 24.9439 60.3294C25.6764 58.9654 26.2742 57.7737 26.7372 56.7544C27.1993 55.7289 27.5356 54.9756 27.7462 54.4945C27.963 54.0124 28.1349 53.6289 28.2618 53.3439C28.6022 52.5963 28.9504 51.9202 29.3064 51.3156C27.7033 51.9915 26.4294 52.402 25.4845 52.547C24.5396 52.6921 23.8512 52.7377 23.4194 52.6839C22.9867 52.6239 22.6941 52.5297 22.5417 52.4014C22.3883 52.2669 22.2997 52.1225 22.276 51.9681C22.2514 51.8075 22.2338 51.6522 22.2234 51.502C22.2007 51.1895 22.3471 50.9078 22.6627 50.6571C22.9843 50.4054 23.2594 50.2621 23.4879 50.227C23.7164 50.1919 23.8359 50.2083 23.8463 50.2763C23.8568 50.3442 23.8185 50.4449 23.7315 50.5783C23.6498 50.7047 23.6122 50.7895 23.6189 50.8327C23.6492 51.0303 24.3777 51.0196 25.8043 50.8006C27.2309 50.5816 28.8417 50.1416 30.6366 49.4804C31.5661 48.4527 32.4169 47.8797 33.1889 47.7611C33.7015 47.6825 34.0634 47.7755 34.2747 48.0401C34.4124 48.196 34.4945 48.3604 34.5211 48.5333C34.5476 48.7062 34.4723 48.8948 34.295 49.099C34.1239 49.3023 33.878 49.4917 33.5573 49.6674C32.9739 49.9845 32.2721 50.2724 31.4521 50.531C31.1693 51.0359 30.7767 51.8136 30.2742 52.8643C29.7779 53.9139 29.438 54.6235 29.2546 54.9931C29.0711 55.3626 28.7823 56.0138 28.3881 56.9466C28.0002 57.8785 27.6627 58.6857 27.3755 59.3683C27.0874 60.0446 26.7737 60.7186 26.4343 61.3902C25.7426 62.7733 25.051 63.518 24.3593 63.6241C24.069 63.6687 23.807 63.6299 23.5733 63.5077C23.3397 63.3856 23.1963 63.1516 23.1432 62.8057C23.0891 62.4537 23.2138 61.9889 23.517 61.4114C23.8255 60.8267 24.0579 60.4465 24.2143 60.2708C24.3706 60.0951 24.4797 60.0025 24.5414 59.993C24.6032 59.9835 24.6402 60.0189 24.6526 60.0992ZM37.873 53.8787C38.3424 53.8066 38.6017 53.9312 38.651 54.2523C38.6775 54.4252 38.6568 54.558 38.5889 54.6506C38.5209 54.7432 38.3892 55.0384 38.1938 55.5362C38.0036 56.0268 37.8025 56.6519 37.5904 57.4115C37.3835 58.1639 37.2721 58.7973 37.2563 59.3117C37.2472 59.3764 37.2512 59.4642 37.2683 59.5754C37.3204 59.9151 37.4391 60.0707 37.6244 60.0422C37.8097 60.0138 38.0157 59.8937 38.2423 59.6819C38.468 59.4639 38.6645 59.241 38.8318 59.013C38.9982 58.7789 39.1579 58.5426 39.3109 58.3042C39.4701 58.0648 39.5659 57.9268 39.5982 57.8902C39.6305 57.8537 39.6837 57.8297 39.7578 57.8183C39.8752 57.8003 39.9599 57.879 40.0121 58.0543C40.0643 58.2296 40.1051 58.413 40.1345 58.6044C40.1639 58.7959 40.1658 58.9315 40.1401 59.0113C40.015 59.3908 39.6847 59.8745 39.1492 60.4624C38.6198 61.0494 38.1049 61.3813 37.6047 61.4581C37.1106 61.5339 36.723 61.4386 36.4419 61.172C36.1608 60.9054 35.9922 60.5899 35.9363 60.2255C35.8794 59.855 35.8914 59.5213 35.9722 59.2244C35.562 59.9701 35.059 60.6257 34.4631 61.1913C33.8734 61.7559 33.3686 62.0705 32.9486 62.1349C32.5286 62.1994 32.1664 62.1254 31.862 61.913C31.474 61.6501 31.2373 61.2408 31.152 60.685C31.0657 60.123 31.103 59.542 31.2637 58.9421C31.4297 58.335 31.681 57.7686 32.0175 57.2429C32.353 56.7109 32.7354 56.2161 33.1645 55.7583C34.0664 54.798 34.9497 54.2516 35.8143 54.1188C36.1478 54.0676 36.4281 54.0815 36.6551 54.1604C36.8822 54.2394 37.0363 54.3579 37.1175 54.5162C37.2316 54.2711 37.3337 54.1132 37.424 54.0424C37.5195 53.9645 37.6692 53.91 37.873 53.8787ZM36.7988 55.0961C35.7427 55.2582 34.7396 56.0127 33.7896 57.3596C33.4526 57.8412 33.1593 58.4014 32.9097 59.0403C32.6663 59.6782 32.5612 60.1052 32.5943 60.3213C32.6275 60.5375 32.7059 60.6361 32.8294 60.6171C33.0023 60.5906 33.4319 60.177 34.1181 59.3763C34.8034 58.5694 35.2511 57.9855 35.4612 57.6245C35.6903 57.2227 36.1361 56.3799 36.7988 55.0961ZM40.7255 58.7507L40.739 58.9004C40.7627 59.0548 40.8418 59.1786 40.9762 59.2717C41.1106 59.3649 41.2272 59.4038 41.326 59.3887C42.0671 59.2749 42.7047 59.0633 43.2387 58.7537C43.779 58.4432 44.032 58.1768 43.9979 57.9545C43.9818 57.8495 43.863 57.776 43.6417 57.7342C43.4255 57.6852 43.0619 57.643 42.5508 57.6077C42.0449 57.5652 41.676 57.5302 41.4442 57.5026C41.2114 57.4688 41.026 57.434 40.8877 57.3984C40.7495 57.3627 40.6049 57.3059 40.4538 57.2279C40.1323 57.0687 39.9407 56.7883 39.8791 56.3869C39.8165 55.9793 39.9031 55.5551 40.1389 55.1143C40.3799 54.6665 40.704 54.2659 41.1112 53.9126C41.5184 53.5593 41.9648 53.2347 42.4504 52.9389C43.4102 52.3554 44.239 52.0101 44.9369 51.903C45.6224 51.7978 46.0682 51.881 46.2743 52.1528C46.3398 52.2502 46.3825 52.3638 46.4024 52.4935L46.4124 52.5583C46.4626 52.8856 46.431 53.1528 46.3174 53.3599C46.2099 53.566 46.0163 53.7665 45.7364 53.9611C45.4627 54.1549 45.2363 54.2655 45.0572 54.293C44.8843 54.3195 44.7713 54.3242 44.7181 54.3071C44.671 54.289 44.6292 54.2638 44.5927 54.2315C44.5552 54.193 44.5103 54.1683 44.458 54.1574C44.4119 54.1455 44.3832 54.1025 44.3718 54.0284C44.3605 53.9543 44.38 53.8754 44.4304 53.7918C44.4798 53.7021 44.5102 53.612 44.5216 53.5218C44.1169 53.6029 43.7054 53.764 43.2873 54.0052C42.8683 54.2402 42.5143 54.4874 42.2254 54.7466C41.9426 55.005 41.711 55.246 41.5304 55.4697C41.3498 55.6933 41.2666 55.8515 41.2808 55.9441C41.2941 56.0306 41.4471 56.0798 41.7397 56.0918C43.0569 56.1488 43.9305 56.2391 44.3604 56.3627C44.7903 56.4864 45.1004 56.6537 45.2908 56.8647C45.4812 57.0757 45.5912 57.2769 45.6205 57.4683C45.6812 57.8636 45.5811 58.2614 45.3202 58.6618C45.0592 59.0621 44.7142 59.409 44.2852 59.7025C43.3658 60.343 42.5355 60.7201 41.7944 60.8339C41.0595 60.9467 40.5324 60.9107 40.2133 60.7258C39.9012 60.5461 39.7215 60.3019 39.6741 59.9931C39.6267 59.6843 39.6603 59.3884 39.7749 59.1053C39.8947 58.8151 40.0781 58.651 40.3251 58.6131C40.5722 58.5752 40.7056 58.621 40.7255 58.7507ZM51.8971 46.7193L52.2911 46.7536C52.3467 46.7451 52.4004 46.7653 52.4522 46.8143C52.5039 46.8632 52.5336 46.9124 52.5412 46.9618C52.5488 47.0112 52.5043 47.1539 52.4078 47.39C52.3113 47.6261 52.1948 47.8968 52.0584 48.2022C51.9272 48.5005 51.8573 48.6629 51.8487 48.6895C52.3247 48.5785 52.6616 48.5079 52.8592 48.4775C53.063 48.4462 53.2043 48.4403 53.2832 48.4598C53.3611 48.4732 53.4563 48.5376 53.5689 48.653C53.6866 48.7614 53.7909 48.8434 53.8816 48.899C53.9714 48.9484 54.0262 49.038 54.0461 49.1677C54.066 49.2974 54.0028 49.4209 53.8564 49.5381C53.7153 49.6483 53.5566 49.7264 53.3804 49.7724C51.9694 50.1344 51.1902 50.3299 51.043 50.3588C50.6603 51.2014 50.1428 52.504 49.4904 54.2667C48.8433 56.0222 48.5233 57.1081 48.5303 57.5242C48.534 57.7133 48.5449 57.8665 48.5629 57.9838C48.5999 58.2247 48.7449 58.3257 48.9982 58.2868C49.2514 58.2479 49.5177 58.1091 49.7971 57.8702C50.0755 57.6252 50.3269 57.3685 50.5512 57.1002C51.1481 56.3764 51.4713 56.0107 51.5207 56.0032C51.6812 55.9785 51.8042 56.2441 51.8895 56.7999C51.936 57.1025 51.8387 57.3956 51.5978 57.6791C51.0565 58.3122 50.5937 58.7973 50.2092 59.1344C49.8248 59.4716 49.4195 59.6729 48.9934 59.7383C48.9008 59.7525 48.8129 59.7565 48.7298 59.7503C48.2215 59.7335 47.8296 59.6104 47.5541 59.3808C47.2839 59.1442 47.1137 58.7973 47.0436 58.3403C46.9796 57.8823 47.0306 57.3088 47.1966 56.6195C47.3679 55.9232 47.6009 55.1762 47.8957 54.3787C48.3788 53.0782 48.8732 51.8518 49.379 50.6996L49.0341 50.7999C48.33 50.9902 47.9193 51.0943 47.802 51.1123L47.7186 51.1251C47.5395 51.1526 47.3614 51.1452 47.1842 51.1029C47.0061 51.0544 46.909 50.9776 46.8928 50.8726C46.8767 50.7676 46.9043 50.6591 46.9756 50.547C47.0531 50.434 47.0968 50.3482 47.1068 50.2898C47.1292 50.1473 47.2665 49.9713 47.5188 49.7619C47.7773 49.5516 47.9771 49.4324 48.1182 49.4044C48.2584 49.3703 48.3928 49.3401 48.5216 49.3141C48.6565 49.287 48.8038 49.2581 48.9634 49.2273C49.1292 49.1955 49.2548 49.1699 49.3404 49.1504L50.1684 48.9854C50.5677 48.1276 50.846 47.5729 51.0034 47.3211C51.1669 47.0685 51.2626 46.9305 51.2907 46.9072C51.3177 46.8778 51.3776 46.856 51.4702 46.8417L51.8971 46.7193ZM55.0898 61.5902C55.0637 61.6258 54.9916 61.7949 54.8737 62.0974C54.763 62.4052 54.6398 62.7149 54.5043 63.0265C54.3698 63.3443 54.1896 63.6532 53.9639 63.9534C53.7443 64.2526 53.5464 64.4252 53.3702 64.4712C53.201 64.5224 53.0918 64.5519 53.0424 64.5594C52.4742 64.6467 52.146 64.4031 52.0578 63.8287C51.9545 63.1556 52.1826 62.3146 52.742 61.3058C52.9554 60.9254 53.2325 60.5067 53.5733 60.0498C53.915 59.5991 54.1001 59.3431 54.1286 59.2819C54.1581 59.2268 54.4885 58.291 55.12 56.4747C54.6267 57.2142 54.1581 57.8266 53.7142 58.3119C53.2694 58.7911 52.8161 59.0914 52.3544 59.2129L52.2895 59.2228C52.0487 59.2598 51.7986 59.216 51.5392 59.0915C51.2808 58.9731 51.1213 58.7163 51.0606 58.321C50.9706 57.7343 51.0408 57.142 51.2714 56.544C51.3532 56.3354 51.4949 55.9818 51.6965 55.4831C51.9042 54.9834 52.0927 54.5025 52.262 54.0404C52.4322 53.6665 52.6 53.2362 52.7655 52.7494C52.931 52.2625 53.0608 51.9139 53.1549 51.7034C53.2481 51.4869 53.3503 51.37 53.4614 51.353C53.5726 51.3359 53.7255 51.3851 53.9203 51.5006C54.1202 51.609 54.2349 51.7589 54.2643 51.9504C54.2937 52.1418 54.0167 53.0346 53.4333 54.6286C52.8499 56.2226 52.5738 57.1216 52.6051 57.3254C52.6127 57.3748 52.6412 57.3957 52.6906 57.3881C52.8573 57.3625 53.1888 57.0714 53.6849 56.5148C54.1862 55.9511 54.7259 55.2456 55.3038 54.3983C55.9497 53.4585 56.4398 52.6152 56.774 51.8685C56.8163 51.7735 56.8495 51.702 56.8738 51.6541C56.9033 51.599 56.937 51.5306 56.975 51.4489C57.0183 51.3601 57.052 51.2917 57.0763 51.2437C57.1067 51.1948 57.1393 51.1392 57.174 51.077C57.2139 51.0077 57.25 50.9547 57.2823 50.9181C57.3146 50.8816 57.35 50.8445 57.3885 50.807C57.447 50.7348 57.5164 50.6926 57.5966 50.6802C57.6831 50.667 57.8126 50.6661 57.985 50.6775C58.1636 50.688 58.2717 50.7125 58.3092 50.751C58.3529 50.7886 58.3961 50.823 58.4388 50.8544C58.511 50.9128 58.5519 50.9729 58.5613 51.0347C58.5699 51.0903 58.557 51.1713 58.5228 51.2777C58.4876 51.3779 58.2753 51.9099 57.8859 52.8736C56.742 55.7168 55.9718 57.782 55.5752 59.0693C56.3926 58.1347 57.5345 56.7615 59.0011 54.9497C59.0605 54.8837 59.1242 54.8454 59.1921 54.835C59.3836 54.8056 59.5243 55.0843 59.6144 55.671C59.6409 55.8439 59.6276 55.9629 59.5744 56.028C57.9458 57.7319 56.451 59.5859 55.0898 61.5902ZM66.4149 47.4112L66.2161 47.4133L66.1791 47.4189C66.0247 47.4426 65.8546 47.4055 65.6689 47.3076C65.4894 47.2087 65.3754 47.0018 65.3271 46.6869C65.2787 46.3719 65.3936 45.9876 65.6716 45.5341C65.9559 45.0795 66.3657 44.6405 66.9012 44.2169C67.4358 43.7872 68.1219 43.3974 68.9595 43.0476C69.8033 42.6968 70.71 42.447 71.6796 42.2982C73.662 41.9938 75.2693 42.1485 76.5014 42.7622C77.7386 43.3688 78.453 44.2958 78.6445 45.5433C78.764 46.3215 78.7105 47.1262 78.4841 47.9574C78.2577 48.7887 77.905 49.5793 77.4259 50.3292C76.9459 51.073 76.3578 51.7922 75.6616 52.487C74.9645 53.1755 74.2175 53.7864 73.4207 54.3196C71.6988 55.4563 69.9917 56.1545 68.2995 56.4143C67.4658 56.5423 66.9304 56.5549 66.6934 56.4523C66.6065 56.4214 66.5162 56.3688 66.4227 56.2947C66.3344 56.2134 66.2662 56.1607 66.2182 56.1364C66.0895 56.0803 66.0067 55.9319 65.9697 55.691C65.9318 55.444 65.9223 55.2178 65.9414 55.0126C66.0253 54.3234 66.636 52.7631 67.7735 50.3317C68.9163 47.8932 69.8811 45.9214 70.6678 44.4163C70.7215 44.3132 71.06 44.1917 71.6833 44.0518C71.9427 44.012 72.1246 44.003 72.2291 44.0249C72.3336 44.0468 72.3935 44.1071 72.4086 44.2059C72.4229 44.2986 72.304 44.5949 72.0521 45.0951C71.7992 45.589 71.0081 47.3129 69.6789 50.2668C68.3488 53.2145 67.6894 54.7253 67.7008 54.7994C67.7122 54.8736 67.9896 54.8689 68.5331 54.7855C69.0827 54.7011 69.7384 54.4835 70.5 54.1327C71.2668 53.7748 71.9733 53.3534 72.6195 52.8686C73.2658 52.3838 73.8721 51.8451 74.4385 51.2524C75.004 50.6536 75.4755 50.0597 75.8528 49.4708C76.6789 48.1808 77.0241 47.0943 76.8886 46.2111C76.753 45.328 76.2333 44.6397 75.3294 44.1463C74.4318 43.652 73.282 43.5124 71.8801 43.7276C70.9352 43.8727 70.0669 44.1671 69.2754 44.611C68.4838 45.055 67.9495 45.4246 67.6724 45.72C67.3954 46.0154 67.2635 46.2063 67.2768 46.2927C67.2844 46.3422 67.3252 46.3612 67.3993 46.3498L67.7863 46.2145C67.8419 46.206 67.8716 46.2141 67.8754 46.2388C67.8791 46.2635 67.8333 46.3148 67.7378 46.3927C67.6423 46.4705 67.5662 46.5517 67.5097 46.6363C67.4584 46.7137 67.3153 46.8526 67.0806 47.053C66.8449 47.2472 66.623 47.3666 66.4149 47.4112ZM85.1901 46.6151C85.6595 46.543 85.9188 46.6676 85.9681 46.9887C85.9947 47.1617 85.9739 47.2944 85.906 47.387C85.838 47.4796 85.7063 47.7748 85.5109 48.2726C85.3208 48.7633 85.1196 49.3884 84.9075 50.1479C84.7006 50.9003 84.5892 51.5337 84.5734 52.0482C84.5643 52.1128 84.5683 52.2007 84.5854 52.3118C84.6376 52.6515 84.7563 52.8071 84.9415 52.7787C85.1268 52.7502 85.3328 52.6301 85.5594 52.4183C85.7852 52.2003 85.9817 51.9774 86.149 51.7494C86.3153 51.5153 86.475 51.279 86.628 51.0406C86.7872 50.8012 86.883 50.6632 86.9153 50.6267C86.9476 50.5901 87.0009 50.5661 87.075 50.5548C87.1923 50.5367 87.2771 50.6154 87.3293 50.7907C87.3815 50.966 87.4223 51.1494 87.4517 51.3408C87.481 51.5323 87.4829 51.6679 87.4572 51.7477C87.3322 52.1272 87.0018 52.6109 86.4663 53.1989C85.9369 53.7858 85.4221 54.1177 84.9218 54.1945C84.4278 54.2704 84.0402 54.175 83.759 53.9084C83.4779 53.6418 83.3094 53.3263 83.2534 52.962C83.1965 52.5914 83.2085 52.2577 83.2894 51.9608C82.8792 52.7065 82.3761 53.3621 81.7802 53.9277C81.1905 54.4923 80.6857 54.8069 80.2657 54.8713C79.8458 54.9358 79.4836 54.8618 79.1791 54.6494C78.7911 54.3866 78.5544 53.9772 78.4691 53.4214C78.3829 52.8594 78.4201 52.2784 78.5809 51.6785C78.7468 51.0715 78.9981 50.5051 79.3346 49.9793C79.6702 49.4474 80.0525 48.9525 80.4816 48.4947C81.3835 47.5345 82.2668 46.988 83.1314 46.8553C83.4649 46.8041 83.7452 46.8179 83.9723 46.8969C84.1993 46.9758 84.3534 47.0944 84.4346 47.2526C84.5487 47.0075 84.6509 46.8496 84.7411 46.7788C84.8367 46.701 84.9863 46.6464 85.1901 46.6151ZM84.1159 47.8325C83.0598 47.9946 82.0568 48.7491 81.1067 50.096C80.7697 50.5776 80.4765 51.1378 80.2268 51.7767C79.9834 52.4146 79.8783 52.8416 79.9115 53.0578C79.9447 53.2739 80.023 53.3725 80.1465 53.3535C80.3194 53.327 80.749 52.9134 81.4352 52.1127C82.1205 51.3058 82.5682 50.7219 82.7783 50.3609C83.0074 49.9591 83.4533 49.1163 84.1159 47.8325ZM90.5871 56.141C90.561 56.1766 90.4889 56.3457 90.371 56.6483C90.2602 56.9561 90.1371 57.2658 90.0016 57.5774C89.8671 57.8951 89.6869 58.2041 89.4612 58.5042C89.2416 58.8034 89.0437 58.976 88.8675 59.0221C88.6983 59.0733 88.5891 59.1027 88.5396 59.1103C87.9715 59.1975 87.6433 58.954 87.5551 58.3796C87.4518 57.7064 87.6799 56.8655 88.2393 55.8567C88.4527 55.4762 88.7298 55.0576 89.0706 54.6007C89.4123 54.15 89.5974 53.894 89.6259 53.8327C89.6554 53.7776 89.9858 52.8419 90.6173 51.0256C90.124 51.765 89.6554 52.3774 89.2115 52.8628C88.7667 53.342 88.3134 53.6423 87.8517 53.7637L87.7868 53.7737C87.5459 53.8107 87.2959 53.7669 87.0365 53.6423C86.7781 53.524 86.6186 53.2671 86.5579 52.8719C86.4679 52.2852 86.5381 51.6928 86.7687 51.0948C86.8505 50.8863 86.9922 50.5327 87.1938 50.034C87.4015 49.5343 87.59 49.0534 87.7593 48.5912C87.9295 48.2174 88.0973 47.7871 88.2628 47.3002C88.4283 46.8134 88.5581 46.4647 88.6522 46.2543C88.7454 46.0377 88.8476 45.9209 88.9587 45.9038C89.0699 45.8868 89.2228 45.936 89.4176 46.0515C89.6175 46.1599 89.7322 46.3098 89.7616 46.5012C89.791 46.6927 89.514 47.5854 88.9306 49.1795C88.3472 50.7735 88.0711 51.6724 88.1024 51.8762C88.11 51.9256 88.1385 51.9466 88.1879 51.939C88.3546 51.9134 88.6861 51.6223 89.1822 51.0657C89.6835 50.502 90.2232 49.7965 90.8011 48.9492C91.447 48.0093 91.937 47.166 92.2712 46.4194C92.3136 46.3244 92.3468 46.2529 92.3711 46.2049C92.4005 46.1498 92.4343 46.0815 92.4723 45.9998C92.5156 45.9109 92.5493 45.8425 92.5736 45.7946C92.604 45.7457 92.6366 45.6901 92.6713 45.6279C92.7112 45.5585 92.7473 45.5056 92.7796 45.469C92.8119 45.4324 92.8473 45.3954 92.8858 45.3579C92.9443 45.2857 93.0136 45.2434 93.0939 45.2311C93.1804 45.2178 93.3098 45.2169 93.4823 45.2284C93.6609 45.2389 93.769 45.2634 93.8065 45.3019C93.8502 45.3394 93.8934 45.3739 93.9361 45.4053C94.0083 45.4637 94.0491 45.5238 94.0586 45.5856C94.0672 45.6412 94.0543 45.7221 94.0201 45.8285C93.9849 45.9288 93.7726 46.4607 93.3832 47.4245C92.2393 50.2677 91.4691 52.3329 91.0725 53.6201C91.8899 52.6855 93.0318 51.3123 94.4984 49.5005C94.5578 49.4345 94.6215 49.3963 94.6894 49.3859C94.8809 49.3565 95.0216 49.6351 95.1117 50.2218C95.1382 50.3948 95.1249 50.5138 95.0717 50.5788C93.4431 52.2827 91.9483 54.1368 90.5871 56.141Z" fill="#1B1C1F"/>
<path d="M30.1385 37.7094C30.0571 37.7085 29.9704 37.699 29.8863 37.6713C29.4708 37.5364 29.2416 37.0939 29.3765 36.6785C29.9871 34.7793 31.1723 33.1617 32.7961 32.0019C35.1536 30.3175 38.1188 29.8373 40.8668 30.6707C41.9434 28.0069 44.1741 26.0008 46.9695 25.2213C49.7604 24.4424 52.7075 25.0075 55.0109 26.7298C56.9353 24.596 59.7188 23.4699 62.6048 23.6933C65.4954 23.9162 68.0699 25.458 69.6457 27.858C72.1815 26.5126 75.1836 26.4037 77.8236 27.6047C78.3584 27.8496 78.8708 28.142 79.347 28.4785C79.702 28.7323 79.7871 29.2253 79.5334 29.5803C79.284 29.9348 78.7911 30.02 78.4316 29.7666C78.0382 29.4896 77.6116 29.2429 77.1672 29.0432C74.7686 27.9537 72.0116 28.1647 69.7964 29.6001C69.6094 29.7181 69.383 29.7587 69.1697 29.7031C68.9564 29.6475 68.7753 29.5074 68.6703 29.3146C67.4179 26.9864 65.1041 25.4774 62.4819 25.273C59.8601 25.073 57.3397 26.2091 55.7467 28.3144C55.6151 28.4901 55.4142 28.6049 55.1951 28.6267C54.9759 28.6485 54.7563 28.5755 54.5927 28.4292C52.6199 26.6695 49.9281 26.0383 47.3922 26.7467C44.8563 27.4552 42.8801 29.3863 42.1015 31.9121C42.0365 32.1218 41.887 32.2993 41.6884 32.3913C41.4902 32.4878 41.2603 32.4926 41.0537 32.4138C38.5983 31.4339 35.8528 31.7612 33.715 33.2928C32.3655 34.2582 31.3875 35.5976 30.8755 37.1708C30.7764 37.4924 30.4677 37.7038 30.1385 37.7094Z" fill="#1B1C1F"/>
<path d="M25.6296 32.7506C25.5482 32.7497 25.4614 32.7403 25.3774 32.7125C24.9619 32.5776 24.7372 32.1347 24.8676 31.7197C25.5687 29.5495 26.9208 27.7031 28.7764 26.3757C31.5008 24.4288 34.9347 23.893 38.1008 24.8881C39.3155 21.795 41.8835 19.4572 45.1097 18.5581C48.3358 17.659 51.745 18.3273 54.3854 20.3503C56.586 17.8593 59.7971 16.5371 63.134 16.797C66.4709 17.0568 69.4456 18.8524 71.2372 21.651C74.1551 20.0598 77.6242 19.9226 80.6756 21.3085C81.286 21.5866 81.8704 21.9214 82.4189 22.305C82.7739 22.5588 82.8591 23.0517 82.6053 23.4067C82.356 23.7613 81.8586 23.8469 81.504 23.5976C81.0422 23.2686 80.5441 22.9839 80.0236 22.7465C77.2137 21.4721 73.9856 21.7164 71.3839 23.3981C71.2018 23.5201 70.9705 23.5566 70.7572 23.5011C70.5439 23.4455 70.3628 23.3054 70.2578 23.1126C68.7896 20.3857 66.0792 18.6136 63.0066 18.3771C59.9296 18.1411 56.9814 19.4733 55.1132 21.9448C54.9816 22.1205 54.7803 22.2308 54.5611 22.2526C54.3419 22.2744 54.1224 22.2014 53.9587 22.0551C51.6484 19.9902 48.4942 19.2514 45.528 20.084C42.5568 20.9125 40.2388 23.1758 39.3315 26.1344C39.2665 26.3441 39.1166 26.5171 38.9184 26.6136C38.7202 26.7101 38.4903 26.7149 38.2837 26.6361C35.4098 25.49 32.1955 25.873 29.6863 27.6674C28.1046 28.7959 26.9557 30.3692 26.3621 32.2125C26.268 32.5381 25.9592 32.7495 25.6296 32.7506Z" fill="#1B1C1F"/>
<path d="M45.132 90.0456C44.903 89.9991 44.6741 89.9486 44.449 89.8826C42.0426 89.1918 40.1331 87.4414 39.2172 85.1321C36.838 85.8307 34.2842 85.3999 32.2583 83.929C30.2362 82.458 29.0369 80.1604 28.9671 77.6803C27.795 77.6066 26.65 77.2728 25.6176 76.71C25.2877 76.5315 25.1674 76.1162 25.3498 75.7863C25.5284 75.4564 25.9475 75.3361 26.2735 75.5146C27.302 76.0774 28.4664 76.3607 29.6424 76.3335C29.8326 76.3297 30.015 76.4034 30.1469 76.5431C30.2789 76.679 30.3487 76.8653 30.3371 77.0554C30.2013 79.3337 31.222 81.4916 33.0578 82.8306C34.8975 84.1696 37.265 84.4684 39.3879 83.6379C39.5665 83.568 39.7644 83.5758 39.9352 83.6612C40.1059 83.7427 40.234 83.894 40.2884 84.0764C40.9404 86.2654 42.6365 87.9459 44.8215 88.5747C47.0066 89.1996 49.3353 88.6756 51.0469 87.1697C51.1905 87.0416 51.3807 86.9834 51.567 87.0028C51.7533 87.0222 51.9279 87.1193 52.0444 87.2745C53.4028 89.1064 55.5723 90.1039 57.8389 89.9447C60.1055 89.7895 62.1159 88.4971 63.2104 86.4944C63.3036 86.3275 63.4588 86.2072 63.6451 86.1606C63.8314 86.1179 64.0255 86.149 64.1846 86.2538C66.0902 87.5113 68.4694 87.7053 70.5458 86.7816C72.6222 85.8579 74.0699 83.96 74.4114 81.7051C74.4386 81.5188 74.5473 81.348 74.7025 81.2432C74.8616 81.1384 75.0557 81.0957 75.242 81.1462C77.4581 81.6779 79.7635 81.0453 81.4014 79.4695C83.0353 77.8938 83.7456 75.6117 83.2992 73.3722C83.2604 73.1859 83.3031 72.9919 83.4157 72.8366C83.5282 72.6814 83.699 72.5805 83.8892 72.5611C86.1558 72.2972 88.108 70.9194 89.1016 68.8779C89.6798 67.698 89.8894 66.3901 89.7148 65.0937C89.6643 64.7212 89.9282 64.3757 90.3008 64.3253C90.6734 64.2787 91.015 64.5349 91.0654 64.9113C91.275 66.4754 91.0188 68.0512 90.3241 69.4717C89.2258 71.7189 87.1726 73.2985 84.7392 73.7992C85.0147 76.2637 84.1453 78.7049 82.3445 80.4437C80.5436 82.1824 78.0713 82.9625 75.6185 82.6016C75.0324 85.0118 73.3829 87.0106 71.093 88.0236C68.807 89.0404 66.2183 88.9279 64.0371 87.7519C62.6632 89.8167 60.4276 91.1285 57.9282 91.2993C55.4326 91.4739 53.0341 90.4842 51.3884 88.629C49.5915 89.9641 47.3288 90.4765 45.132 90.0456Z" fill="#1B1C1F"/>
<path d="M43.5834 95.8053C43.3233 95.7549 43.0633 95.6928 42.8032 95.619C40.0243 94.8195 37.8199 92.7858 36.7914 90.1039C34.0474 90.9422 31.0899 90.4571 28.7496 88.7572C26.4132 87.0572 25.0392 84.3909 24.9888 81.5227C23.6187 81.4451 22.272 81.0686 21.0688 80.4049C20.7389 80.2225 20.6186 79.8072 20.7971 79.4773C20.9796 79.1474 21.391 79.0271 21.7209 79.2056C22.9279 79.8654 24.2902 80.1953 25.668 80.1643C25.8582 80.1604 26.0406 80.2341 26.1725 80.37C26.3045 80.5097 26.3744 80.6921 26.3627 80.8862C26.2075 83.5564 27.399 86.083 29.5491 87.651C31.7032 89.2151 34.4782 89.5722 36.966 88.598C37.1445 88.5282 37.3425 88.5359 37.5132 88.6213C37.684 88.7067 37.8121 88.8542 37.8664 89.0366C38.631 91.5982 40.6182 93.5698 43.1758 94.3033C45.7335 95.0368 48.462 94.4236 50.4685 92.6577C50.6121 92.5335 50.8023 92.4714 50.9886 92.4908C51.1788 92.5141 51.3495 92.6111 51.4621 92.7625C53.0572 94.9088 55.5955 96.077 58.2541 95.8907C60.9088 95.7083 63.2647 94.1946 64.5454 91.8504C64.6347 91.6835 64.7938 91.5593 64.9801 91.5166C65.1625 91.4701 65.3605 91.505 65.5196 91.6098C67.7513 93.0808 70.5379 93.3136 72.9675 92.2269C75.401 91.1479 77.0932 88.924 77.4968 86.281C77.5279 86.0947 77.6327 85.9239 77.7879 85.8191C77.947 85.7104 78.1372 85.6716 78.3274 85.7221C80.9278 86.3392 83.629 85.6057 85.5424 83.7582C87.4597 81.9108 88.2903 79.2367 87.7625 76.6169C87.7236 76.4306 87.7663 76.2366 87.8789 76.0813C87.9914 75.9261 88.1622 75.8252 88.3524 75.8058C91.0071 75.4992 93.2931 73.8846 94.4613 71.4938C95.1366 70.1121 95.385 68.5791 95.1832 67.0615C95.1328 66.6889 95.3967 66.3474 95.7693 66.297C96.1419 66.2465 96.4834 66.5104 96.5339 66.883C96.7745 68.6683 96.4795 70.4692 95.6878 72.0954C94.4225 74.6919 92.0317 76.5082 89.214 77.0555C89.5633 79.9043 88.5697 82.7336 86.4894 84.744C84.4091 86.7506 81.5449 87.6394 78.7116 87.1931C78.0635 89.9914 76.1656 92.3084 73.5225 93.4844C70.8795 94.6604 67.8871 94.5168 65.376 93.1273C63.8119 95.5336 61.2309 97.0628 58.3472 97.2646C55.4636 97.4626 52.6963 96.306 50.8139 94.1403C48.7414 95.6966 46.1255 96.2982 43.5834 95.8053Z" fill="#1B1C1F"/>
</svg>
