<svg width="158" height="56" viewBox="0 0 158 56" fill="none" xmlns="http://www.w3.org/2000/svg">
<path d="M38.9476 32.2423L38.8892 32.4878C38.8892 32.5345 38.9086 32.5774 38.9476 32.6164C38.9944 32.6553 39.0489 32.6748 39.1113 32.6748C39.1736 32.6748 39.2242 32.6436 39.2632 32.5813C40.4243 31.0383 41.3867 29.6824 42.1504 28.5135C42.9141 27.3368 43.4713 26.4718 43.822 25.9185C44.1805 25.3652 44.4649 24.9249 44.6753 24.5976C45.2364 23.7404 45.7936 22.9728 46.3468 22.2948C44.2428 22.8248 42.5946 23.0897 41.4023 23.0897C40.21 23.0897 39.3528 23.0157 38.8307 22.8676C38.3086 22.7118 37.9657 22.5403 37.8021 22.3533C37.6384 22.1585 37.5566 21.9637 37.5566 21.7688C37.5566 21.5662 37.5644 21.3714 37.58 21.1844C37.6111 20.7947 37.8449 20.4752 38.2813 20.2259C38.7255 19.9765 39.0918 19.8518 39.3801 19.8518C39.6684 19.8518 39.8126 19.8947 39.8126 19.9804C39.8126 20.0661 39.7464 20.183 39.6139 20.3311C39.4892 20.4713 39.4269 20.5687 39.4269 20.6233C39.4269 20.8727 40.3269 20.9974 42.1271 20.9974C43.9272 20.9974 45.9962 20.7597 48.334 20.2843C49.6744 19.1933 50.8316 18.6478 51.8057 18.6478C52.4525 18.6478 52.8811 18.831 53.0915 19.1972C53.2318 19.4154 53.3019 19.6336 53.3019 19.8518C53.3019 20.07 53.1733 20.2882 52.9161 20.5064C52.6668 20.7246 52.3278 20.9116 51.8992 21.0675C51.1199 21.348 50.2004 21.5701 49.1406 21.7338C48.6964 22.3026 48.0651 23.1871 47.2469 24.3872C46.4365 25.5873 45.8832 26.3977 45.587 26.8186C45.2909 27.2394 44.8117 27.9875 44.1493 29.0629C43.4947 30.1383 42.9258 31.0695 42.4427 31.8566C41.9595 32.6359 41.4452 33.4073 40.8997 34.171C39.7853 35.7452 38.7918 36.5322 37.919 36.5322C37.5527 36.5322 37.2371 36.4348 36.9721 36.24C36.7072 36.0452 36.5747 35.7296 36.5747 35.2932C36.5747 34.849 36.8163 34.2996 37.2994 33.645C37.7904 32.9826 38.1488 32.5579 38.3748 32.3709C38.6008 32.1839 38.7528 32.0904 38.8307 32.0904C38.9086 32.0904 38.9476 32.141 38.9476 32.2423ZM56.4224 27.0757C57.0147 27.0757 57.3108 27.2783 57.3108 27.6835C57.3108 27.9017 57.2602 28.0615 57.1588 28.1628C57.0575 28.2641 56.8393 28.6031 56.5043 29.1798C56.177 29.7486 55.8107 30.4812 55.4055 31.3773C55.008 32.2657 54.7509 33.0255 54.634 33.6567C54.6106 33.7346 54.5989 33.8437 54.5989 33.984C54.5989 34.4126 54.7158 34.6269 54.9496 34.6269C55.1834 34.6269 55.46 34.5178 55.7795 34.2996C56.099 34.0736 56.3835 33.8359 56.6328 33.5866C56.8822 33.3294 57.1238 33.0684 57.3576 32.8034C57.5991 32.5384 57.7433 32.3865 57.7901 32.3475C57.8368 32.3086 57.907 32.2891 58.0005 32.2891C58.1485 32.2891 58.2381 32.4021 58.2693 32.6281C58.3005 32.8541 58.3161 33.0878 58.3161 33.3294C58.3161 33.571 58.2927 33.7385 58.2459 33.832C58.0199 34.2762 57.5212 34.81 56.7497 35.4335C55.986 36.0569 55.2886 36.3686 54.6574 36.3686C54.0339 36.3686 53.5742 36.1777 53.278 35.7958C52.9819 35.414 52.8339 34.9932 52.8339 34.5334C52.8339 34.0658 52.9118 33.6567 53.0676 33.306C52.4208 34.1477 51.6766 34.8607 50.835 35.4451C50.0012 36.0296 49.3193 36.3218 48.7894 36.3218C48.2595 36.3218 47.827 36.1621 47.4919 35.8426C47.0633 35.4451 46.849 34.8958 46.849 34.1944C46.849 33.4853 47.0049 32.7761 47.3166 32.067C47.6361 31.35 48.053 30.6994 48.5673 30.1149C49.0816 29.5226 49.6466 28.9849 50.2622 28.5018C51.5558 27.4887 52.7481 26.9822 53.8391 26.9822C54.2599 26.9822 54.6028 27.0523 54.8678 27.1926C55.1327 27.3329 55.3003 27.5082 55.3704 27.7186C55.5574 27.4381 55.7133 27.2627 55.838 27.1926C55.9704 27.1147 56.1653 27.0757 56.4224 27.0757ZM54.8678 28.3732C53.5352 28.3732 52.1559 29.1135 50.7298 30.5941C50.2233 31.1241 49.7557 31.7592 49.3271 32.4995C48.9063 33.2398 48.6959 33.7463 48.6959 34.0191C48.6959 34.2918 48.7738 34.4282 48.9297 34.4282C49.1479 34.4282 49.7557 33.9996 50.7532 33.1424C51.7507 32.2774 52.413 31.6423 52.7403 31.2371C53.0988 30.7851 53.808 29.8305 54.8678 28.3732ZM59.017 33.6216L59.0053 33.8087C59.0053 34.0035 59.0793 34.171 59.2274 34.3113C59.3754 34.4516 59.5118 34.5217 59.6365 34.5217C60.5716 34.5217 61.3976 34.3814 62.1146 34.1009C62.8393 33.8204 63.2017 33.5398 63.2017 33.2593C63.2017 33.1268 63.0692 33.0138 62.8042 32.9203C62.5471 32.819 62.1068 32.6982 61.4834 32.5579C60.8677 32.4099 60.4197 32.2969 60.1391 32.2189C59.8586 32.1332 59.6365 32.0553 59.4728 31.9852C59.3092 31.915 59.1416 31.8176 58.9702 31.6929C58.6039 31.4358 58.4208 31.0539 58.4208 30.5474C58.4208 30.0331 58.6078 29.5265 58.9819 29.0278C59.3637 28.5213 59.8391 28.0888 60.408 27.7303C60.9768 27.3718 61.5886 27.0562 62.2432 26.7835C63.5368 26.2458 64.6239 25.9769 65.5044 25.9769C66.3694 25.9769 66.9032 26.164 67.1059 26.538C67.1682 26.6705 67.1994 26.8186 67.1994 26.9822V27.064C67.1994 27.477 67.1097 27.8004 66.9305 28.0342C66.7591 28.268 66.4824 28.4784 66.1006 28.6654C65.7265 28.8525 65.4265 28.946 65.2005 28.946C64.9823 28.946 64.842 28.9304 64.7797 28.8992C64.7252 28.8681 64.6784 28.8291 64.6394 28.7823C64.6005 28.7278 64.5498 28.6888 64.4875 28.6654C64.4329 28.6421 64.4057 28.5836 64.4057 28.4901C64.4057 28.3966 64.4446 28.3031 64.5225 28.2096C64.6005 28.1083 64.655 28.0031 64.6862 27.894C64.1719 27.9173 63.6342 28.0381 63.0731 28.2563C62.512 28.4667 62.0289 28.7044 61.6236 28.9694C61.2262 29.2343 60.895 29.4876 60.6301 29.7292C60.3651 29.9707 60.2326 30.15 60.2326 30.2669C60.2326 30.376 60.4119 30.4656 60.7703 30.5357C62.3834 30.8552 63.4432 31.1319 63.9498 31.3656C64.4563 31.5994 64.807 31.8644 65.0018 32.1605C65.1966 32.4566 65.294 32.7255 65.294 32.967C65.294 33.4658 65.0953 33.9372 64.6979 34.3814C64.3005 34.8256 63.8095 35.188 63.225 35.4685C61.9704 36.0842 60.8755 36.392 59.9404 36.392C59.0131 36.392 58.3702 36.2478 58.0117 35.9595C57.661 35.6789 57.4857 35.3438 57.4857 34.9542C57.4857 34.5646 57.5831 34.2061 57.7779 33.8788C57.9805 33.5437 58.2377 33.3762 58.5494 33.3762C58.8611 33.3762 59.017 33.458 59.017 33.6216ZM75.0657 20.9038L75.545 21.0207C75.6151 21.0207 75.6774 21.0558 75.732 21.1259C75.7865 21.1961 75.8138 21.2623 75.8138 21.3246C75.8138 21.387 75.732 21.5545 75.5683 21.8273C75.4047 22.1 75.2099 22.4117 74.9839 22.7624C74.7657 23.1053 74.6488 23.2923 74.6332 23.3235C75.241 23.2767 75.6696 23.2534 75.919 23.2534C76.1762 23.2534 76.3515 23.2728 76.445 23.3118C76.5385 23.343 76.6437 23.4404 76.7606 23.604C76.8853 23.7599 76.9983 23.8807 77.0996 23.9664C77.2009 24.0443 77.2516 24.1651 77.2516 24.3288C77.2516 24.4924 77.1503 24.6327 76.9477 24.7496C76.7528 24.8587 76.5424 24.9249 76.3164 24.9483C74.5085 25.1275 73.511 25.221 73.324 25.2288C72.6928 26.1951 71.8083 27.703 70.6706 29.7525C69.5406 31.7942 68.9406 33.0723 68.8704 33.5866C68.8393 33.8204 68.8237 34.0113 68.8237 34.1593C68.8237 34.4633 68.9834 34.6152 69.3029 34.6152C69.6224 34.6152 69.977 34.4944 70.3667 34.2529C70.7563 34.0035 71.1148 33.7346 71.4421 33.4463C72.3149 32.667 72.7824 32.2774 72.8448 32.2774C73.0474 32.2774 73.1487 32.6281 73.1487 33.3294C73.1487 33.7113 72.9733 34.0541 72.6227 34.3581C71.8356 35.036 71.1732 35.5465 70.6355 35.8893C70.0978 36.2322 69.5601 36.4037 69.0224 36.4037C68.9055 36.4037 68.7964 36.392 68.6951 36.3686C68.0717 36.2517 67.6119 36.0257 67.3158 35.6906C67.0275 35.3477 66.8833 34.888 66.8833 34.3113C66.8911 33.7346 67.0625 33.0372 67.3976 32.2189C67.7405 31.3929 68.1691 30.5162 68.6834 29.5889C69.525 28.0771 70.3667 26.6588 71.2083 25.334L70.7641 25.3925C69.8601 25.4938 69.3341 25.5444 69.1861 25.5444H69.0809C68.8549 25.5444 68.6367 25.5016 68.4263 25.4159C68.2159 25.3223 68.1107 25.2093 68.1107 25.0769C68.1107 24.9444 68.1652 24.8158 68.2743 24.6911C68.3912 24.5664 68.4613 24.469 68.4847 24.3989C68.5393 24.2275 68.7419 24.0365 69.0925 23.8261C69.451 23.6157 69.7199 23.5066 69.8991 23.4988C70.0783 23.4832 70.2498 23.4716 70.4134 23.4638C70.5849 23.456 70.7719 23.4482 70.9745 23.4404C71.1849 23.4326 71.3447 23.4248 71.4538 23.417L72.5058 23.3703C73.1604 22.3884 73.6085 21.7571 73.85 21.4766C74.0994 21.1961 74.2436 21.0441 74.2825 21.0207C74.3215 20.9896 74.3994 20.974 74.5163 20.974L75.0657 20.9038ZM76.1874 39.8403C76.1484 39.8792 76.0276 40.0741 75.825 40.4247C75.6302 40.7832 75.4198 41.1417 75.1938 41.5001C74.9678 41.8664 74.6873 42.2132 74.3522 42.5405C74.0249 42.8678 73.7483 43.0431 73.5223 43.0665C73.3041 43.0977 73.1638 43.1132 73.1015 43.1132C72.3845 43.1132 72.0261 42.7509 72.0261 42.0261C72.0261 41.1767 72.4663 40.1832 73.3469 39.0454C73.682 38.6168 74.1028 38.1531 74.6094 37.6544C75.1159 37.1635 75.3925 36.8829 75.4393 36.8128C75.486 36.7504 76.0705 35.6595 77.1927 33.5398C76.4446 34.3581 75.751 35.0243 75.112 35.5387C74.473 36.0452 73.8574 36.3296 73.2651 36.392H73.1833C72.8794 36.392 72.5793 36.2907 72.2832 36.0881C71.9871 35.8932 71.839 35.5465 71.839 35.0477C71.839 34.3074 72.0377 33.5905 72.4352 32.8969C72.5754 32.6553 72.817 32.2462 73.1599 31.6696C73.5106 31.0929 73.834 30.5357 74.1301 29.998C74.4106 29.5694 74.699 29.0707 74.9951 28.5018C75.2912 27.9329 75.5172 27.5277 75.6731 27.2861C75.8289 27.0367 75.977 26.9121 76.1173 26.9121C76.2575 26.9121 76.4368 27.0017 76.655 27.1809C76.8809 27.3524 76.9939 27.5589 76.9939 27.8004C76.9939 28.042 76.4835 29.0901 75.4627 30.9448C74.4418 32.7995 73.9314 33.8554 73.9314 34.1126C73.9314 34.1749 73.9626 34.2061 74.0249 34.2061C74.2353 34.2061 74.699 33.91 75.4159 33.3177C76.1406 32.7177 76.9394 31.9501 77.8122 31.015C78.7863 29.9785 79.55 29.0317 80.1033 28.1745C80.1734 28.0654 80.2279 27.9836 80.2669 27.929C80.3137 27.8667 80.3682 27.7888 80.4306 27.6952C80.5007 27.5939 80.5552 27.516 80.5942 27.4615C80.641 27.4069 80.6916 27.3446 80.7462 27.2744C80.8085 27.1965 80.8631 27.1381 80.9098 27.0991C80.9566 27.0601 81.0072 27.0212 81.0618 26.9822C81.1475 26.9043 81.241 26.8653 81.3423 26.8653C81.4514 26.8653 81.6112 26.8887 81.8216 26.9354C82.0398 26.9822 82.1683 27.0329 82.2073 27.0874C82.2541 27.142 82.3008 27.1926 82.3476 27.2394C82.4255 27.3251 82.4645 27.4069 82.4645 27.4848C82.4645 27.555 82.4333 27.6524 82.371 27.7771C82.3086 27.894 81.9462 28.5096 81.2839 29.6239C79.3357 32.9125 77.9953 35.3127 77.2628 36.8245C78.4473 35.827 80.1149 34.3503 82.2658 32.3943C82.3515 32.3241 82.4372 32.2891 82.5229 32.2891C82.7645 32.2891 82.8853 32.6592 82.8853 33.3995C82.8853 33.6177 82.8463 33.7619 82.7684 33.832C80.4383 35.6244 78.2447 37.6271 76.1874 39.8403ZM92.8318 24.5041L92.5863 24.469H92.5396C92.3448 24.469 92.1422 24.3911 91.9318 24.2352C91.7291 24.0794 91.6278 23.8027 91.6278 23.4053C91.6278 23.0079 91.8421 22.5559 92.2707 22.0494C92.7071 21.5428 93.2955 21.0792 94.0358 20.6584C94.7761 20.2298 95.6957 19.8791 96.7944 19.6063C97.901 19.3336 99.066 19.1972 100.289 19.1972C102.791 19.1972 104.743 19.6921 106.146 20.6817C107.556 21.6636 108.262 22.9416 108.262 24.5158C108.262 25.4977 108.043 26.4796 107.607 27.4615C107.171 28.4433 106.586 29.3512 105.854 30.185C105.121 31.0111 104.26 31.7864 103.27 32.5112C102.281 33.2281 101.244 33.8398 100.161 34.3464C97.8231 35.4218 95.5866 35.9595 93.4513 35.9595C92.3993 35.9595 91.7369 35.8738 91.4642 35.7023C91.3629 35.6478 91.2616 35.5659 91.1603 35.4568C91.0668 35.3399 90.9927 35.262 90.9382 35.2231C90.7901 35.1295 90.7161 34.9308 90.7161 34.6269C90.7161 34.3152 90.7472 34.0347 90.8096 33.7853C91.0434 32.9515 92.0915 31.1435 93.954 28.3615C95.8242 25.5717 97.3867 23.3235 98.6413 21.6169C98.727 21.5 99.1673 21.4143 99.9622 21.3597C100.289 21.3597 100.515 21.3831 100.64 21.4299C100.765 21.4766 100.827 21.5623 100.827 21.687C100.827 21.8039 100.625 22.1468 100.219 22.7157C99.8141 23.2767 98.5127 25.2522 96.3152 28.6421C94.1176 32.0241 93.0188 33.7619 93.0188 33.8554C93.0188 33.9489 93.3617 33.9957 94.0475 33.9957C94.741 33.9957 95.5905 33.8515 96.5957 33.5632C97.6088 33.2671 98.5595 32.8813 99.4479 32.406C100.336 31.9306 101.186 31.3812 101.996 30.7578C102.807 30.1266 103.5 29.4837 104.077 28.8291C105.339 27.3952 105.97 26.1211 105.97 25.0067C105.97 23.8924 105.46 22.9455 104.439 22.1663C103.426 21.387 102.035 20.9974 100.266 20.9974C99.0738 20.9974 97.9478 21.1961 96.888 21.5935C95.8281 21.9909 95.0995 22.3455 94.7021 22.6572C94.3046 22.9689 94.1059 23.1793 94.1059 23.2884C94.1059 23.3508 94.1527 23.3819 94.2462 23.3819L94.7488 23.2884C94.819 23.2884 94.854 23.304 94.854 23.3352C94.854 23.3664 94.7878 23.4209 94.6553 23.4988C94.5228 23.5768 94.4137 23.6625 94.328 23.756C94.2501 23.8417 94.0475 23.9859 93.7202 24.1885C93.3929 24.3833 93.0968 24.4885 92.8318 24.5041ZM116.128 27.0757C116.72 27.0757 117.016 27.2783 117.016 27.6835C117.016 27.9017 116.966 28.0615 116.864 28.1628C116.763 28.2641 116.545 28.6031 116.21 29.1798C115.882 29.7486 115.516 30.4812 115.111 31.3773C114.713 32.2657 114.456 33.0255 114.339 33.6567C114.316 33.7346 114.304 33.8437 114.304 33.984C114.304 34.4126 114.421 34.6269 114.655 34.6269C114.889 34.6269 115.165 34.5178 115.485 34.2996C115.804 34.0736 116.089 33.8359 116.338 33.5866C116.588 33.3294 116.829 33.0684 117.063 32.8034C117.305 32.5384 117.449 32.3865 117.495 32.3475C117.542 32.3086 117.612 32.2891 117.706 32.2891C117.854 32.2891 117.944 32.4021 117.975 32.6281C118.006 32.8541 118.021 33.0878 118.021 33.3294C118.021 33.571 117.998 33.7385 117.951 33.832C117.725 34.2762 117.227 34.81 116.455 35.4335C115.691 36.0569 114.994 36.3686 114.363 36.3686C113.739 36.3686 113.28 36.1777 112.983 35.7958C112.687 35.414 112.539 34.9932 112.539 34.5334C112.539 34.0658 112.617 33.6567 112.773 33.306C112.126 34.1477 111.382 34.8607 110.54 35.4451C109.707 36.0296 109.025 36.3218 108.495 36.3218C107.965 36.3218 107.532 36.1621 107.197 35.8426C106.769 35.4451 106.554 34.8958 106.554 34.1944C106.554 33.4853 106.71 32.7761 107.022 32.067C107.341 31.35 107.758 30.6994 108.273 30.1149C108.787 29.5226 109.352 28.9849 109.968 28.5018C111.261 27.4887 112.454 26.9822 113.545 26.9822C113.965 26.9822 114.308 27.0523 114.573 27.1926C114.838 27.3329 115.006 27.5082 115.076 27.7186C115.263 27.4381 115.419 27.2627 115.543 27.1926C115.676 27.1147 115.871 27.0757 116.128 27.0757ZM114.573 28.3732C113.241 28.3732 111.861 29.1135 110.435 30.5941C109.929 31.1241 109.461 31.7592 109.033 32.4995C108.612 33.2398 108.401 33.7463 108.401 34.0191C108.401 34.2918 108.479 34.4282 108.635 34.4282C108.853 34.4282 109.461 33.9996 110.459 33.1424C111.456 32.2774 112.118 31.6423 112.446 31.2371C112.804 30.7851 113.513 29.8305 114.573 28.3732ZM120.978 39.8403C120.939 39.8792 120.819 40.0741 120.616 40.4247C120.421 40.7832 120.211 41.1417 119.985 41.5001C119.759 41.8664 119.478 42.2132 119.143 42.5405C118.816 42.8678 118.539 43.0431 118.313 43.0665C118.095 43.0977 117.955 43.1132 117.892 43.1132C117.176 43.1132 116.817 42.7509 116.817 42.0261C116.817 41.1767 117.257 40.1832 118.138 39.0454C118.473 38.6168 118.894 38.1531 119.4 37.6544C119.907 37.1635 120.184 36.8829 120.23 36.8128C120.277 36.7504 120.861 35.6595 121.984 33.5398C121.236 34.3581 120.542 35.0243 119.903 35.5387C119.264 36.0452 118.648 36.3296 118.056 36.392H117.974C117.67 36.392 117.37 36.2907 117.074 36.0881C116.778 35.8932 116.63 35.5465 116.63 35.0477C116.63 34.3074 116.829 33.5905 117.226 32.8969C117.366 32.6553 117.608 32.2462 117.951 31.6696C118.302 31.0929 118.625 30.5357 118.921 29.998C119.202 29.5694 119.49 29.0707 119.786 28.5018C120.082 27.9329 120.308 27.5277 120.464 27.2861C120.62 27.0367 120.768 26.9121 120.908 26.9121C121.049 26.9121 121.228 27.0017 121.446 27.1809C121.672 27.3524 121.785 27.5589 121.785 27.8004C121.785 28.042 121.274 29.0901 120.254 30.9448C119.233 32.7995 118.722 33.8554 118.722 34.1126C118.722 34.1749 118.754 34.2061 118.816 34.2061C119.026 34.2061 119.49 33.91 120.207 33.3177C120.932 32.7177 121.73 31.9501 122.603 31.015C123.577 29.9785 124.341 29.0317 124.894 28.1745C124.964 28.0654 125.019 27.9836 125.058 27.929C125.105 27.8667 125.159 27.7888 125.222 27.6952C125.292 27.5939 125.346 27.516 125.385 27.4615C125.432 27.4069 125.483 27.3446 125.537 27.2744C125.599 27.1965 125.654 27.1381 125.701 27.0991C125.748 27.0601 125.798 27.0212 125.853 26.9822C125.938 26.9043 126.032 26.8653 126.133 26.8653C126.242 26.8653 126.402 26.8887 126.613 26.9354C126.831 26.9822 126.959 27.0329 126.998 27.0874C127.045 27.142 127.092 27.1926 127.139 27.2394C127.216 27.3251 127.255 27.4069 127.255 27.4848C127.255 27.555 127.224 27.6524 127.162 27.7771C127.1 27.894 126.737 28.5096 126.075 29.6239C124.127 32.9125 122.786 35.3127 122.054 36.8245C123.238 35.827 124.906 34.3503 127.057 32.3943C127.142 32.3241 127.228 32.2891 127.314 32.2891C127.555 32.2891 127.676 32.6592 127.676 33.3995C127.676 33.6177 127.637 33.7619 127.559 33.832C125.229 35.6244 123.036 37.6271 120.978 39.8403Z" fill="#1B1C1F"/>
<path d="M142.347 42.2391C138.57 44.5379 133.624 46.5837 127.996 48.3173C122.353 50.0454 116.072 51.5313 109.2 52.5596C102.343 53.5879 95.0768 54.2447 87.6585 54.53C80.2251 54.7723 72.731 54.5839 65.4341 54.0563L60.0031 53.5771L54.7391 52.9095C53.844 52.8126 52.9945 52.678 52.1601 52.5273L49.6267 52.1074C48.7923 51.962 47.9276 51.8328 47.0933 51.6821L44.6812 51.176C38.2338 49.8462 32.2719 48.1719 27.3264 46.1584C22.3506 44.1664 18.1939 41.9053 15.0537 39.4665C12.0348 37.0061 10.1385 34.3789 9.30416 31.6978L8.87939 29.6736L9.03109 27.6439C8.98558 26.9602 9.38001 26.298 9.57722 25.6197L9.94131 24.6075C10.0778 24.2737 10.3509 23.9453 10.5481 23.6115C11.0184 22.9547 11.3066 22.2764 11.9286 21.6304L13.7642 19.6922C15.2964 18.4432 16.7831 17.1727 18.8311 16.0098C22.745 13.6517 27.5843 11.4552 33.4552 9.61936C39.3109 7.78891 45.9555 6.26533 53.1462 5.12399C60.3217 3.95034 68.1344 3.32045 76.0229 3.01897C83.9418 2.70133 92.0124 2.91129 99.8402 3.52503C115.617 4.69329 130.12 7.8589 141.012 12.1928C142.378 12.8011 144.638 12.5481 143.288 11.789C132.79 6.28686 115.89 2.17911 96.9427 0.666298C78.0406 -0.846517 57.4849 0.246371 40.5245 3.64347C23.5339 7.03519 10.5481 12.6988 4.32831 19.1108C-2.0887 25.5281 -1.14815 32.6238 5.67847 38.7074C12.4292 44.834 25.6577 49.8139 41.2982 52.7427C49.1261 54.2124 57.5911 55.1815 66.1926 55.6229C74.8093 56.0375 83.517 55.8921 91.8303 55.2891C100.159 54.6808 108.093 53.5825 115.253 52.0535C122.383 50.503 128.694 48.538 133.928 46.2822C139.162 44.0265 143.303 41.48 146.185 38.772C146.807 38.0829 147.611 37.4153 148.097 36.7154L149.538 34.6104L150.433 32.4677C150.691 31.7517 150.661 31.0249 150.812 30.3035L148.264 30.2819C148.37 33.4583 146.64 36.6562 143.166 39.6226C139.693 42.589 134.489 45.3293 127.936 47.6066C121.397 49.8893 113.524 51.7144 104.907 52.9203C96.2904 54.1316 86.9455 54.7131 77.5703 54.6323C68.1951 54.557 58.8502 53.8086 50.2335 52.425C41.6168 51.0468 33.7586 49.0333 27.2809 46.5514C20.788 44.0695 15.6908 41.1139 12.4141 37.9052C9.12211 34.6966 7.71128 31.2402 8.2119 27.8001C8.68218 24.5268 11.0336 21.275 15.0992 18.3086C19.1497 15.3422 24.884 12.6665 31.832 10.4754C38.7648 8.28421 46.8961 6.58296 55.6038 5.49008C64.3115 4.39181 73.5805 3.90727 82.7585 4.02033C101.19 4.21953 119.031 6.99751 132.123 11.5467C145.321 16.0744 153.725 22.3195 155.424 28.9791C155.727 29.8674 158.291 29.8997 157.973 28.9575C156.274 22.0718 147.596 15.5899 133.928 10.9061C120.381 6.19534 101.888 3.31507 82.8344 3.11587C73.3226 2.99743 63.735 3.49811 54.7087 4.63946C45.6976 5.77541 37.2933 7.53588 30.1177 9.80779C22.9422 12.0743 17.0106 14.8415 12.8085 17.9156C8.60632 20.9843 6.16391 24.3491 5.67847 27.7354C5.16268 31.2887 6.61902 34.8688 10.002 38.1959C13.385 41.5231 18.6642 44.581 25.3695 47.1544C32.0747 49.7278 40.206 51.8113 49.1261 53.2433C58.0462 54.6808 67.74 55.4614 77.4338 55.5368C87.1427 55.6229 96.8365 55.0199 105.772 53.7709C114.707 52.5219 122.884 50.6323 129.665 48.2688C136.461 45.9054 141.877 43.0736 145.472 39.9941C149.098 36.9146 150.903 33.5983 150.797 30.2981C150.843 29.4421 148.385 29.4528 148.249 30.2765C148.112 30.971 148.127 31.6655 147.884 32.3546L147.035 34.4166L145.654 36.4409C145.199 37.1192 144.395 37.7545 143.819 38.4167C141.073 41.017 137.114 43.472 132.107 45.647C127.101 47.822 121.063 49.7278 114.206 51.2245C107.334 52.705 99.7189 53.7817 91.709 54.3847C83.7143 54.9769 75.3099 55.1599 67.0118 54.7615C58.7288 54.3578 50.5521 53.4533 42.9518 52.0535C35.3515 50.6592 28.358 48.7803 22.3961 46.5083C16.4038 44.2418 11.6555 41.5392 8.24224 38.6105C4.85927 35.671 2.91748 32.5 2.52305 29.2752C2.08312 26.045 3.53946 22.7771 6.42181 19.6653C12.2472 13.4525 24.5958 7.88043 41.01 4.57485C57.3028 1.23158 77.1607 0.0364072 95.5015 1.47923C113.858 2.85746 130.378 6.74986 140.709 12.042L143 11.6275C131.774 7.14287 116.785 3.8642 100.493 2.65288C92.3916 2.01222 84.0328 1.79149 75.8561 2.11451C67.7096 2.42138 59.6239 3.07819 52.1905 4.28413C44.757 5.46316 37.8697 7.03519 31.8168 8.92487C25.7639 10.8199 20.7274 13.0918 16.6769 15.5306C14.5531 16.7366 13.0209 18.0502 11.428 19.3423L9.51654 21.3504C8.86422 22.018 8.57598 22.7179 8.07537 23.4016C7.87815 23.7461 7.58992 24.0853 7.45338 24.4299L7.07413 25.4743C6.86174 26.1742 6.45215 26.8633 6.49766 27.5686L6.34596 29.6682L6.78589 31.7624C7.6506 34.5404 9.60756 37.2592 12.7326 39.811C15.9791 42.3414 20.2723 44.6833 25.4301 46.7452C30.5425 48.8287 36.7168 50.5623 43.3917 51.9459L45.8948 52.4735C46.7443 52.635 47.6394 52.7696 48.5193 52.9149L51.1437 53.351C52.0084 53.5071 52.8883 53.6417 53.8137 53.744L59.275 54.4331L64.9031 54.9284C72.4579 55.4776 80.2251 55.6768 87.9164 55.4237C95.5926 55.133 103.117 54.4493 110.232 53.3833C117.362 52.3173 123.87 50.783 129.71 48.9902C135.536 47.1921 140.648 45.0709 144.577 42.6913C145.927 41.9268 143.652 41.5123 142.347 42.2391Z" fill="#1B1C1F"/>
</svg>
